<!--
檔案位置：jonaminz/assets/img/jonaminz-wordmark.svg
時間戳：2026-07-13 16:13 UTC+8
用途：由原始品牌示意圖描摹，並以點對稱補完被竹葉遮擋之 z 右下勾的 Jonaminz 專屬設計字標。
-->
<svg xmlns="http://www.w3.org/2000/svg" width="765" height="205" viewBox="0 0 765 205"
     role="img" aria-labelledby="jonaminz-wordmark-title jonaminz-wordmark-desc"
     focusable="false" data-component="jonaminz-wordmark">
  <title id="jonaminz-wordmark-title">Jonaminz</title>
  <desc id="jonaminz-wordmark-desc">具高對比髮絲、J 長尾、a 到 m 下方連筆，以及與左上端點對稱的 z 右下勾。</desc>
  <path id="jonaminz-wordmark-ink" data-part="ink"
        d="M 35 12.870 C 35 13.348, 37.123 13.979, 39.718 14.272 C 46.111 14.992, 49.588 18.832, 50.495 26.175 C 50.857 29.104, 50.959 58.950, 50.721 92.500 C 50.254 158.310, 50.056 161.015, 44.648 175.260 C 41.618 183.244, 37.661 189.266, 32.215 194.186 C 28.148 197.861, 18.776 202, 14.522 202 C 13.200 202, 11.840 202.450, 11.500 203 C 10.365 204.836, 22.787 204.093, 29.168 201.943 C 45.149 196.560, 55.269 185.052, 62.096 164.500 L 64.421 157.500 64.960 90 C 65.347 41.595, 65.827 21.931, 66.657 20.489 C 68.738 16.873, 71.773 14.840, 75.922 14.284 C 78.165 13.983, 80 13.346, 80 12.868 C 80 12.391, 69.875 12, 57.500 12 C 45.125 12, 35 12.391, 35 12.870 M 561.923 52.923 C 560.179 54.668, 559 56.903, 559 58.469 C 559 61.305, 562.983 66, 565.389 66 C 570.680 66, 575.795 60.174, 574.433 55.700 C 572.516 49.404, 566.727 48.119, 561.923 52.923 M 124 76.814 C 107.093 81.234, 95.033 93.813, 91.484 110.730 C 89.450 120.426, 91.076 130.544, 96.121 139.585 C 99.479 145.604, 107.977 153.927, 113.793 156.894 C 123.476 161.834, 138.167 163.396, 148.664 160.601 C 161.726 157.123, 171.921 149.011, 177.497 137.658 C 179.431 133.721, 181.489 127.876, 182.072 124.669 C 183.444 117.117, 182.001 107.573, 178.356 100.097 C 174.618 92.427, 166.024 84.059, 158 80.275 C 146.381 74.796, 135.830 73.722, 124 76.814 M 212.184 77.984 C 209.811 79.580, 205.423 81.433, 202.434 82.102 C 196.907 83.339, 195.116 85, 199.309 85 C 200.579 85, 202.401 85.573, 203.359 86.273 L 205.100 87.546 205.028 120.483 C 204.947 156.967, 204.781 158, 198.977 158 C 197.340 158, 196 158.450, 196 159 C 196 159.624, 201.833 160, 211.500 160 C 221.167 160, 227 159.624, 227 159 C 227 158.450, 225.720 158, 224.155 158 C 222.534 158, 220.490 157.095, 219.405 155.897 L 217.500 153.794 217.192 125.904 L 216.884 98.013 220.396 92.757 C 222.327 89.866, 225.841 86.295, 228.204 84.823 C 236.943 79.377, 246.461 78.818, 254.500 83.280 C 257.493 84.941, 259.255 87.011, 261.500 91.500 L 264.500 97.500 264.500 125.042 C 264.500 149.723, 264.316 152.864, 262.727 155.292 C 261.608 157.001, 260.062 158, 258.536 158 C 257.206 158, 255.840 158.450, 255.500 159 C 255.098 159.650, 260.343 160, 270.500 160 C 280.657 160, 285.902 159.650, 285.500 159 C 285.160 158.450, 283.794 158, 282.464 158 C 280.940 158, 279.390 157, 278.273 155.296 C 276.709 152.911, 276.441 149.112, 275.996 123.046 L 275.492 93.500 273.290 89.376 C 270.797 84.707, 266.041 80.343, 261.264 78.341 C 254.786 75.626, 248.441 74.817, 242.396 75.935 C 234.154 77.458, 228.260 80.613, 222.289 86.699 L 217.078 92.010 216.789 83.546 L 216.500 75.082 212.184 77.984 M 325.734 76.088 C 323.663 76.576, 320.188 77.884, 318.011 78.994 C 313.067 81.517, 307 87.489, 307 89.834 C 307 90.940, 308.695 92.425, 311.527 93.801 C 314.016 95.010, 316.210 96, 316.402 96 C 316.593 96, 317.041 94.545, 317.397 92.766 C 318.398 87.758, 322.583 82.254, 327.164 79.916 C 330.515 78.207, 332.650 77.868, 338.120 78.177 C 343.648 78.489, 345.713 79.114, 349.207 81.530 C 352.109 83.538, 354.427 86.355, 356.362 90.224 C 358.637 94.773, 359.355 97.853, 359.862 105.224 L 360.500 114.500 366.250 119.895 L 372 125.290 372 115.194 C 372 104.062, 370.714 96.399, 367.919 90.872 C 364.981 85.064, 357.597 79.265, 350.248 76.995 C 343.403 74.881, 332.561 74.480, 325.734 76.088 M 439.929 76.308 C 433.113 78.234, 426.286 82.623, 422.958 87.217 L 420 91.300 420 83.650 C 420 79.443, 419.838 76, 419.641 76 C 419.443 76, 416.631 77.338, 413.391 78.974 C 410.151 80.610, 405.592 82.235, 403.260 82.586 C 398.872 83.246, 398.311 85, 402.488 85 C 403.791 85, 405.564 85.707, 406.429 86.571 C 407.793 87.936, 408 92.449, 408 120.849 C 408 148.832, 407.775 153.876, 406.443 155.777 C 405.575 157.017, 403.833 158, 402.502 158 C 401.191 158, 399.840 158.450, 399.500 159 C 399.098 159.650, 404.343 160, 414.500 160 C 424.657 160, 429.902 159.650, 429.500 159 C 429.160 158.450, 427.853 158, 426.596 158 C 425.339 158, 423.453 157.053, 422.405 155.897 L 420.500 153.793 420.208 125.073 L 419.915 96.353 423.208 91.456 C 425.090 88.655, 428.607 85.261, 431.422 83.529 C 435.591 80.963, 437.348 80.500, 442.922 80.500 C 447.750 80.500, 450.427 81.045, 452.986 82.548 C 457.953 85.466, 461.816 91.513, 463.062 98.321 C 463.691 101.758, 463.999 114.065, 463.814 128.368 C 463.540 149.540, 463.276 152.935, 461.727 155.297 C 460.590 157.030, 459.065 158, 457.477 158 C 456.115 158, 455 158.450, 455 159 C 455 159.622, 460.686 160, 470.059 160 C 479.844 160, 484.902 159.650, 484.500 159 C 484.160 158.450, 482.853 158, 481.596 158 C 480.339 158, 478.453 157.054, 477.405 155.897 L 475.500 153.793 475.180 126.001 L 474.861 98.209 477.331 93.354 C 480.347 87.429, 483.122 84.749, 489 82.084 C 495.226 79.261, 501.448 79.422, 507.764 82.570 C 512.123 84.742, 513.353 86.018, 515.711 90.820 L 518.500 96.500 518.500 125.144 L 518.500 153.789 516.595 155.894 C 515.547 157.052, 513.661 158, 512.404 158 C 511.147 158, 509.840 158.450, 509.500 159 C 509.098 159.650, 514.343 160, 524.500 160 C 534.657 160, 539.902 159.650, 539.500 159 C 539.160 158.450, 537.853 158, 536.596 158 C 535.339 158, 533.453 157.054, 532.405 155.897 L 530.500 153.794 530 123.647 L 529.500 93.500 527.342 89.500 C 526.154 87.300, 523.904 84.287, 522.342 82.804 C 518.785 79.429, 511.906 76.371, 505.887 75.490 C 499.979 74.624, 490.214 77.057, 484.641 80.783 C 482.363 82.305, 479.043 85.720, 477.262 88.371 L 474.023 93.191 473.056 90.648 C 471.494 86.539, 465.291 80.357, 460.443 78.078 C 454.748 75.401, 445.854 74.634, 439.929 76.308 M 612.637 77.831 C 610.512 79.255, 605.787 81.184, 602.137 82.118 C 595.682 83.768, 595.563 84.191, 601.213 85.426 C 605.713 86.410, 606.175 90.183, 605.820 123.047 C 605.535 149.313, 605.303 152.893, 603.727 155.297 C 602.610 157, 601.060 158, 599.536 158 C 598.206 158, 596.840 158.450, 596.500 159 C 596.098 159.650, 601.343 160, 611.500 160 C 621.657 160, 626.902 159.650, 626.500 159 C 626.160 158.450, 624.794 158, 623.464 158 C 621.940 158, 620.390 157, 619.273 155.297 C 617.706 152.908, 617.464 149.415, 617.191 125.227 L 616.881 97.860 620.017 92.974 C 623.497 87.550, 630.285 82.539, 636.370 80.900 C 638.563 80.310, 642.415 80.126, 644.929 80.492 C 651.451 81.441, 657.092 85.053, 660.011 90.152 L 662.500 94.500 662.804 124.196 L 663.109 153.891 661.054 155.946 C 659.925 157.075, 657.902 158, 656.559 158 C 655.216 158, 653.840 158.450, 653.500 159 C 653.098 159.650, 658.343 160, 668.500 160 C 678.657 160, 683.902 159.650, 683.500 159 C 683.160 158.450, 682.095 158, 681.132 158 C 680.170 158, 678.509 157.362, 677.441 156.582 L 675.500 155.165 674.964 125.332 C 674.349 91.113, 674.111 89.982, 665.941 82.637 C 660.209 77.483, 654.105 75.434, 645.154 75.660 C 640.288 75.782, 637.331 76.547, 632.470 78.940 C 628.612 80.839, 624.416 83.968, 621.752 86.931 L 617.374 91.801 617.133 83.680 C 617 79.213, 616.804 75.487, 616.696 75.399 C 616.588 75.312, 614.762 76.406, 612.637 77.831 M 568.854 78.039 C 565.670 80.417, 558.651 83, 555.374 83 C 554.068 83, 553 83.450, 553 84 C 553 84.550, 554.055 85, 555.345 85 C 556.635 85, 558.458 85.848, 559.396 86.885 C 560.884 88.529, 561.178 92.318, 561.703 116.635 C 562.033 131.961, 561.978 146.670, 561.580 149.322 C 560.756 154.807, 558.152 158, 554.500 158 C 553.125 158, 552 158.450, 552 159 C 552 159.624, 557.853 160, 567.559 160 C 577.677 160, 582.902 159.650, 582.500 159 C 582.160 158.450, 580.853 158, 579.596 158 C 578.339 158, 576.453 157.053, 575.405 155.896 L 573.500 153.793 573.196 114.896 C 573.029 93.503, 572.579 76.014, 572.196 76.032 C 571.813 76.049, 570.309 76.953, 568.854 78.039 M 701.633 77.785 C 701.366 78.216, 700.400 82.260, 699.486 86.771 C 697.723 95.472, 697.965 99.509, 699.949 94.504 C 701.907 89.567, 705.862 85.112, 710.308 82.835 C 713.865 81.013, 716.736 80.615, 729.250 80.208 C 737.362 79.944, 744 79.979, 744 80.285 C 744 80.591, 741.673 84.590, 738.828 89.171 C 719.465 120.357, 696 158.868, 696 159.463 C 696 159.780, 705.525 159.918, 717.167 159.770 C 733.016 159.568, 738.439 159.186, 738.751 158.250 C 739.071 157.288, 735.819 157, 724.654 157 L 710.141 157 716.702 146.250 C 724.640 133.243, 745.932 99.276, 753.508 87.532 C 756.528 82.850, 759 78.564, 759 78.009 C 759 76.800, 702.378 76.579, 701.633 77.785 M 123.500 80.387 C 120.750 81.690, 116.968 84.273, 115.095 86.128 C 113.222 87.982, 110.114 92.806, 108.188 96.846 C 105.101 103.322, 104.629 105.377, 104.205 114.190 C 103.910 120.319, 104.206 126.375, 104.972 129.844 C 107.781 142.578, 115.310 152.994, 124.804 157.281 C 128.252 158.838, 131.492 159.400, 137 159.396 C 143.111 159.392, 145.429 158.910, 149.520 156.795 C 152.281 155.368, 156.602 151.994, 159.123 149.299 C 164.127 143.950, 167.174 137.069, 169.001 126.997 C 171.341 114.092, 166.948 96.705, 159.085 87.749 C 157.319 85.739, 153.131 82.723, 149.778 81.047 C 144.580 78.450, 142.561 78.001, 136.090 78.010 C 130.196 78.017, 127.383 78.548, 123.500 80.387 M 315.824 111.138 C 308.943 113.538, 301.902 119.506, 299.084 125.327 C 296.371 130.931, 296.285 140.864, 298.900 146.500 C 301.320 151.717, 306.280 156.340, 312.500 159.180 C 316.740 161.116, 319.171 161.462, 328.500 161.460 C 337.662 161.459, 340.467 161.072, 345.285 159.145 C 351.864 156.512, 362.049 147.710, 364.020 142.952 C 364.718 141.267, 365.642 140.251, 366.073 140.694 C 366.504 141.137, 367.820 143.975, 368.998 147 C 374.603 161.397, 387.048 175.870, 398.930 181.807 C 407.274 185.977, 414.527 187.306, 425.933 186.758 C 438.059 186.174, 445.233 183.467, 452.672 176.669 C 457.392 172.355, 461 167.504, 461 165.472 C 461 165.127, 457.962 167.964, 454.250 171.776 C 449.095 177.070, 446.161 179.205, 441.835 180.809 C 438.718 181.964, 433.958 183.202, 431.255 183.561 C 421.017 184.919, 407.622 179.996, 399.047 171.724 C 392.158 165.079, 387.081 157.546, 379.046 142.048 C 373.698 131.734, 370.166 126.233, 366.546 122.581 C 357.210 113.163, 345.959 108.944, 330.540 109.079 C 324.281 109.134, 319.754 109.767, 315.824 111.138 M 327.500 111.935 C 320.201 113.712, 314.405 118.703, 311.463 125.743 C 309.567 130.280, 309.587 140.767, 311.499 145.344 C 313.804 150.861, 319.274 155.707, 325.174 157.459 C 331.630 159.376, 334.327 159.389, 340.581 157.532 C 346.489 155.777, 351.433 152.313, 354.461 147.804 C 357.229 143.685, 360 135.606, 360 131.660 C 360 127.357, 355.625 120.526, 350.698 117.137 C 346.111 113.980, 337.219 110.937, 333.068 111.102 C 331.656 111.159, 329.150 111.533, 327.500 111.935" fill="#171717" fill-rule="evenodd"/>
  <path id="jonaminz-wordmark-z-terminal" data-part="z-terminal"
        d="M753.367 158.712 C753.634 158.281 754.600 154.237 755.514 149.726 C757.277 141.025 757.035 136.988 755.051 141.993 C753.093 146.930 749.138 151.385 744.692 153.662 C741.135 155.484 738.264 155.882 725.750 156.289 C735.500 158.400 745.000 159.500 753.367 158.712 Z"
        fill="#171717"/>
</svg>
