<!--
檔案位置：jonaminz/assets/img/jonaminz-stacked-stones.svg
時間戳：2026-07-13 10:58 UTC+8
用途：Jonaminz 獨立疊石元件；四顆石頭與地面乾刷皆為可單獨動畫的向量群組。

2026-07-13 大幅改版歷程（由舊到新）：
1. 平滑漸層＋模糊斑塊模擬石頭質感——使用者回饋斑塊看起來像「瘀青」。
2. 改用角度分面低多邊形，但單一中心點放射切面——像洋傘/沙灘球。
3. 改用兩個不對稱內部頂點，方向確認但切面數太少、太粗糙。
4. 三個內部頂點、12 切面、高光窄帶取代銳利描邊——方向確認，但外輪廓
   仍是最初的 8 點橢圓，沒有真的不規則；頂石凹口一度做成對稱雙峰，
   被使用者笑稱像貓耳朵，已修正凹口深度與兩側高度不對稱。
5. 使用者指出四顆石頭切面模板完全一樣、只是換色，「像同一顆複製四份」
   ——這版讓四顆石頭各自用不同數量的內部頂點與不同的弧段分配邏輯
   （頂石 3 點均分 12 面／中層石 2 點對半 10 面／薄石 3 點但刻意不均分
   12 面／底石 4 點＋四邊形中心對角切 14 面），四顆質感真正不同，不是
   同一套模板換色。
6. 使用者提供兩張參考向量圖（灰階低多邊形石頭示範＋竹子插畫），指出
   正確做法是「切面邊界本身用有機曲線，不是直線幾何」＋「同一顆石頭
   的顏色要收緊在一組相近色調內，不要大範圍明暗跳躍」。頂石先行套用
   確認方向後，這版把中層石／薄石／底石也全部換成二次貝茲曲線切面邊
   （用 curve-facets.mjs 腳本產生，每條邊固定隨機微凸，不是銳利直線），
   並重新選過三顆的色票，範圍收窄到 5-6 個彼此接近的色階。薄石另外依
   使用者要求整體壓扁（原本輪廓高約 54px 壓到約 24px，像變薄的筆記
   本），外輪廓、clip-path、光澤疊層、描邊全部同步改用壓扁後座標。
7. 曲線幅度加大後發現一個渲染 bug：相鄰切面各自獨立算彎曲弧度，共用邊
   對不齊，背景從縫隙透出變成白色裂線；外輪廓的描邊/光澤疊層跟切面本
   身的邊界曲線也各自獨立算，兩者對不齊出現白色縫隙。修法：改用「以邊
   的座標為 key」的雜湊來決定每條共用邊的彎曲量，兩個三角形共用同一條
   邊時算出來的曲線完全相同（curve-facets.mjs／curve-outline-shared.mjs
   統一邏輯）；外輪廓也改用同一套邊雜湊，不再各自獨立。
8. 薄石壓扁＋加大曲線後使用者說看起來像枯葉／木片——兩端收成銳角尖點
   （對稱梭形）加上規律波浪凹刻，讀起來像葉脈。改法：兩端各拆成兩點、
   中間夾一小段近垂直鈍邊（切面數 12→14）；曲線幅度調降到其他三顆的
   0.6 倍；並手動把頂邊其中一段曲線方向反過來，打斷原本規律的單一凸
   弧，變成不規則的上下波動。
（後續使用者一度想改參考另一張圓潤平塗縮圖整個重畫比例/配色，試了一輪
後覺得方向不對，2026-07-14 決定revert回這一版繼續往下走，把重點移到把
竹子＋石頭組合進主 logo 檔。）
-->
<svg xmlns="http://www.w3.org/2000/svg"
     width="512"
     height="512"
     viewBox="0 0 512 512"
     role="img"
     aria-labelledby="jonaminz-stacked-stones-title jonaminz-stacked-stones-desc"
     focusable="false"
     data-component="jonaminz-stacked-stones">
  <title id="jonaminz-stacked-stones-title">Jonaminz 平衡疊石</title>
  <desc id="jonaminz-stacked-stones-desc">四顆角度分面的低多邊形石頭由深色底石向上堆疊，輪廓不規則凸凹，各自用不同數量的內部頂點切出大小不一的切面（不是同一套模板換色），切面邊界為有機曲線而非直線，每顆石頭用收緊的相近色階呈現圓潤石面質感，底部有獨立的手繪地面筆觸。</desc>

  <defs>
    <radialGradient id="jonaminz-stacked-stones-contact-shadow" cx="50%" cy="50%" r="50%">
      <stop offset="0" stop-color="#0c0d0a" stop-opacity="0.45"/>
      <stop offset="0.6" stop-color="#0c0d0a" stop-opacity="0.16"/>
      <stop offset="1" stop-color="#0c0d0a" stop-opacity="0"/>
    </radialGradient>
    <filter id="jonaminz-stacked-stones-shadow" x="-18%" y="-24%" width="136%" height="160%">
      <feDropShadow dx="0" dy="8" stdDeviation="7" flood-color="#161713" flood-opacity="0.2"/>
    </filter>

    <!-- 整體光澤疊層：蓋在所有切面「之上」，不分切面界線，讓平塗色塊
       帶一點連續的圓潤光感——稜角本身還是銳利（切面顏色對比不變），
       只是石面看起來不是純幾何平面。 -->
    <radialGradient id="jonaminz-stacked-stones-sheen" cx="34%" cy="24%" r="80%">
      <stop offset="0" stop-color="#ffffff" stop-opacity="0.32"/>
      <stop offset="0.45" stop-color="#ffffff" stop-opacity="0.08"/>
      <stop offset="0.75" stop-color="#000000" stop-opacity="0"/>
      <stop offset="1" stop-color="#000000" stop-opacity="0.16"/>
    </radialGradient>

    <clipPath id="jonaminz-stacked-stones-clip-top"><path d="M196.0,153.0 Q210.7,133.4 210.0,109.0 Q233.0,99.0 258.0,98.0 Q286.2,99.8 307.0,119.0 Q324.7,130.3 332.0,150.0 Q326.6,166.4 316.0,180.0 Q292.9,199.4 263.0,203.0 Q235.2,198.8 212.0,183.0 Q202.8,168.6 196.0,153.0 Z"/></clipPath>
    <clipPath id="jonaminz-stacked-stones-clip-middle"><path d="M145.0,258.0 Q160.8,229.4 175.0,200.0 Q213.8,189.6 250.0,207.0 Q288.7,205.6 325.0,192.0 Q347.7,212.5 374.0,228.0 Q376.5,256.6 360.0,280.0 Q327.7,301.3 290.0,310.0 Q241.3,287.7 188.0,293.0 Q174.1,266.2 145.0,258.0 Z"/></clipPath>
    <clipPath id="jonaminz-stacked-stones-clip-slab"><path d="M112.0,308.0 Q138.1,300.4 165.0,304.0 Q220.4,316.4 275.0,308.0 Q324.7,295.0 375.0,305.0 Q391.9,304.0 408.0,309.0 Q406.9,315.0 408.0,321.0 Q385.9,318.2 365.0,326.0 Q300.2,341.0 235.0,328.0 Q194.5,329.0 155.0,320.0 Q133.5,317.5 112.0,320.0 Q110.7,314.0 112.0,308.0 Z"/></clipPath>
    <clipPath id="jonaminz-stacked-stones-clip-base"><path d="M78.0,404.0 Q108.4,369.8 148.0,347.0 Q185.6,363.5 225.0,352.0 Q286.8,356.2 345.0,335.0 Q389.0,338.6 422.0,368.0 Q423.9,396.6 428.0,425.0 Q370.1,455.0 305.0,458.0 Q228.3,462.9 155.0,440.0 Q112.4,430.8 78.0,404.0 Z"/></clipPath>
  </defs>

  <!-- ============ 頂石（橄欖綠） ============ -->
  <!-- 輪廓 P1(196,153) P2(210,109) P3(258,98) P4(307,119) P5(332,150)
       P6(316,180) P7(263,203) P8(212,183)。P3 是往外推出的不對稱凸峰
       （不是內凹）——原本 P3 做成內收凹口，使用者不喜歡頂部凹陷的
       感覺，且凹口深度加上兩側對稱高度曾經看起來像貓耳朵，這裡改成
       單一偏一側的凸峰，兩種問題一起修正。 -->
  <g id="jonaminz-stacked-stones-stone-top" data-part="stone" data-order="4" filter="url(#jonaminz-stacked-stones-shadow)">
    <path d="M228.0,132.0 Q227.2,159.7 212.0,183.0 Q202.8,168.6 196.0,153.0 Q215.0,147.1 228.0,132.0 Z" fill="#7d8163"/>
    <path d="M228.0,132.0 Q215.0,147.1 196.0,153.0 Q210.7,133.4 210.0,109.0 Q217.4,121.7 228.0,132.0 Z" fill="#8f9370"/>
    <path d="M228.0,132.0 Q217.4,121.7 210.0,109.0 Q233.0,99.0 258.0,98.0 Q248.6,119.9 228.0,132.0 Z" fill="#b8bc97"/>
    <path d="M298.0,138.0 Q286.4,109.6 258.0,98.0 Q286.2,99.8 307.0,119.0 Q305.1,129.7 298.0,138.0 Z" fill="#a3a781"/>
    <path d="M298.0,138.0 Q305.1,129.7 307.0,119.0 Q324.7,130.3 332.0,150.0 Q316.1,140.9 298.0,138.0 Z" fill="#828659"/>
    <path d="M270.0,175.0 Q295.8,149.5 332.0,150.0 Q326.6,166.4 316.0,180.0 Q294.1,167.4 270.0,175.0 Z" fill="#5c6247"/>
    <path d="M270.0,175.0 Q294.1,167.4 316.0,180.0 Q292.9,199.4 263.0,203.0 Q262.6,188.0 270.0,175.0 Z" fill="#454a33"/>
    <path d="M270.0,175.0 Q262.6,188.0 263.0,203.0 Q235.2,198.8 212.0,183.0 Q239.6,168.9 270.0,175.0 Z" fill="#4d5338"/>
    <path d="M228.0,132.0 Q248.6,119.9 258.0,98.0 Q286.4,109.6 298.0,138.0 Q263.9,124.9 228.0,132.0 Z" fill="#95996f"/>
    <path d="M298.0,138.0 Q316.1,140.9 332.0,150.0 Q295.8,149.5 270.0,175.0 Q283.1,155.8 298.0,138.0 Z" fill="#6d7355"/>
    <path d="M270.0,175.0 Q239.6,168.9 212.0,183.0 Q227.2,159.7 228.0,132.0 Q257.2,145.5 270.0,175.0 Z" fill="#656a4c"/>
    <path d="M228.0,132.0 Q263.9,124.9 298.0,138.0 Q283.1,155.8 270.0,175.0 Q257.2,145.5 228.0,132.0 Z" fill="#767a5a"/>
    <path d="M227.2,130.9 L269.4,173.6 L270.8,172.9 L228.6,130.2 Z" fill="#d8dcc0" opacity="0.5"/>
    <path d="M196.0,153.0 Q210.7,133.4 210.0,109.0 Q233.0,99.0 258.0,98.0 Q286.2,99.8 307.0,119.0 Q324.7,130.3 332.0,150.0 Q326.6,166.4 316.0,180.0 Q292.9,199.4 263.0,203.0 Q235.2,198.8 212.0,183.0 Q202.8,168.6 196.0,153.0 Z" fill="url(#jonaminz-stacked-stones-sheen)" clip-path="url(#jonaminz-stacked-stones-clip-top)"/>
    <path d="M196.0,153.0 Q210.7,133.4 210.0,109.0 Q233.0,99.0 258.0,98.0 Q286.2,99.8 307.0,119.0 Q324.7,130.3 332.0,150.0 Q326.6,166.4 316.0,180.0 Q292.9,199.4 263.0,203.0 Q235.2,198.8 212.0,183.0 Q202.8,168.6 196.0,153.0 Z" fill="none" stroke="#3a3f2e" stroke-width="0.8" stroke-linejoin="round" opacity="0.25"/>
  </g>

  <ellipse cx="255" cy="196" rx="42" ry="12" fill="url(#jonaminz-stacked-stones-contact-shadow)"/>

  <!-- ============ 中層石（灰白） ============ -->
  <!-- 輪廓 P1(145,258) P2(175,200) P3(250,207,內收凹口) P4(325,192)
       P5(374,228) P6(360,280) P7(290,310) P8(188,293)。
       2026-07-13：跟頂石不同的切面模板——只用兩個內部頂點（A 管
       P8→P1→P2→P3→P4 五段弧、B 管 P4→P5→P6→P7→P8 五段弧），切面數 10
       個且明顯比頂石大塊，不是同一套三頂點模板換色，四顆石頭質感要
       各自不同，不是同一顆複製四份。
       同日再改：切面邊界改用二次貝茲曲線（有機微凸取代直線），色票收窄
       到 5-6 個彼此接近的灰調（不再是舊版由深灰到近白的大範圍跳躍）。 -->
  <g id="jonaminz-stacked-stones-stone-middle" data-part="stone" data-order="3" filter="url(#jonaminz-stacked-stones-shadow)">
    <path d="M200.0,230.0 Q206.4,263.9 188.0,293.0 Q174.1,266.2 145.0,258.0 Q173.2,245.4 200.0,230.0 Z" fill="#8f8c82"/>
    <path d="M200.0,230.0 Q173.2,245.4 145.0,258.0 Q160.8,229.4 175.0,200.0 Q185.3,216.8 200.0,230.0 Z" fill="#aaa79d"/>
    <path d="M200.0,230.0 Q185.3,216.8 175.0,200.0 Q213.8,189.6 250.0,207.0 Q225.9,220.5 200.0,230.0 Z" fill="#c4c0b6"/>
    <path d="M200.0,230.0 Q225.9,220.5 250.0,207.0 Q288.7,205.6 325.0,192.0 Q258.4,197.6 200.0,230.0 Z" fill="#b7b3a9"/>
    <path d="M320.0,260.0 Q311.1,225.2 325.0,192.0 Q347.7,212.5 374.0,228.0 Q349.1,247.5 320.0,260.0 Z" fill="#a09d92"/>
    <path d="M320.0,260.0 Q349.1,247.5 374.0,228.0 Q376.5,256.6 360.0,280.0 Q338.4,273.2 320.0,260.0 Z" fill="#908d84"/>
    <path d="M320.0,260.0 Q338.4,273.2 360.0,280.0 Q327.7,301.3 290.0,310.0 Q297.1,280.2 320.0,260.0 Z" fill="#837f76"/>
    <path d="M320.0,260.0 Q297.1,280.2 290.0,310.0 Q241.3,287.7 188.0,293.0 Q257.4,290.1 320.0,260.0 Z" fill="#8c8980"/>
    <path d="M200.0,230.0 Q258.4,197.6 325.0,192.0 Q311.1,225.2 320.0,260.0 Q263.4,231.4 200.0,230.0 Z" fill="#b0ada3"/>
    <path d="M320.0,260.0 Q257.4,290.1 188.0,293.0 Q206.4,263.9 200.0,230.0 Q263.4,231.4 320.0,260.0 Z" fill="#999690"/>
    <path d="M199.2,228.8 L319.2,258.8 L320.4,257.2 L200.4,227.2 Z" fill="#eeece5" opacity="0.4"/>
    <path d="M145.0,258.0 Q160.8,229.4 175.0,200.0 Q213.8,189.6 250.0,207.0 Q288.7,205.6 325.0,192.0 Q347.7,212.5 374.0,228.0 Q376.5,256.6 360.0,280.0 Q327.7,301.3 290.0,310.0 Q241.3,287.7 188.0,293.0 Q174.1,266.2 145.0,258.0 Z" fill="url(#jonaminz-stacked-stones-sheen)" clip-path="url(#jonaminz-stacked-stones-clip-middle)"/>
    <path d="M145.0,258.0 Q160.8,229.4 175.0,200.0 Q213.8,189.6 250.0,207.0 Q288.7,205.6 325.0,192.0 Q347.7,212.5 374.0,228.0 Q376.5,256.6 360.0,280.0 Q327.7,301.3 290.0,310.0 Q241.3,287.7 188.0,293.0 Q174.1,266.2 145.0,258.0 Z" fill="none" stroke="#4f4c45" stroke-width="0.9" stroke-linejoin="round" opacity="0.28"/>
  </g>

  <ellipse cx="255" cy="303" rx="56" ry="8" fill="url(#jonaminz-stacked-stones-contact-shadow)"/>

  <!-- ============ 薄石／扁平岩片（棕褐） ============ -->
  <!-- 輪廓改為 10 點：P1b(112,308) P2(165,304) P3(275,308) P4(375,305)
       P5a(408,309) P5b(408,321) P6(365,326) P7(235,328) P8(155,320)
       P1a(112,320)，內部頂點 A(130,313) B(280,306) C(310,318)。
       2026-07-13：第三種切面模板——三個內部頂點但刻意不平均分配
       （A 只管 1 段弧、B 管 4 段、C 管 3 段），切面大小差異比頂石的
       3/2/3 均分模板更懸殊，跟中層石的兩點模板也不同。
       同日再改：依使用者要求把這顆整體壓扁（原輪廓高約 54px→約 24px，
       像變薄的筆記本），切面邊界改二次貝茲曲線。
       同日第三次修改：壓扁+加大曲線幅度後，使用者說這顆看起來像枯葉／
       木片不像石頭——原本兩端各收攏成一個銳角尖點（左右對稱的「梭形」
       輪廓），加上規律的波浪凹刻，讀起來像葉緣脈絡。改法：把左右兩端
       各拆成兩個點、中間夾一小段近垂直的「鈍邊」（不再收成尖點，變成
       扁圓角），切面數因此從 12 變 14；曲線幅度另外調降到其他三顆的
       0.6 倍（bulge scale 0.6），避免規律扇形波浪蓋過鈍邊端的效果。 -->
  <g id="jonaminz-stacked-stones-stone-slab" data-part="stone" data-order="2" filter="url(#jonaminz-stacked-stones-shadow)">
    <path d="M130.0,313.0 Q142.2,317.7 155.0,320.0 Q133.5,317.5 112.0,320.0 Q120.3,314.8 130.0,313.0 Z" fill="#b18d61"/>
    <path d="M130.0,313.0 Q120.3,314.8 112.0,320.0 Q110.7,314.0 112.0,308.0 Q120.7,311.8 130.0,313.0 Z" fill="#a8845c"/>
    <path d="M130.0,313.0 Q120.7,311.8 112.0,308.0 Q196.2,321.0 280.0,306.0 Q205.3,317.0 130.0,313.0 Z" fill="#b6926a"/>
    <path d="M280.0,306.0 Q196.2,321.0 112.0,308.0 Q138.1,300.4 165.0,304.0 Q222.4,311.2 280.0,306.0 Z" fill="#bb9868"/>
    <path d="M280.0,306.0 Q222.4,311.2 165.0,304.0 Q220.4,316.4 275.0,308.0 Q277.3,306.5 280.0,306.0 Z" fill="#d8b98f"/>
    <path d="M280.0,306.0 Q277.3,306.5 275.0,308.0 Q324.7,295.0 375.0,305.0 Q327.5,304.1 280.0,306.0 Z" fill="#cfae82"/>
    <path d="M280.0,306.0 Q327.5,304.1 375.0,305.0 Q391.9,304.0 408.0,309.0 Q343.9,313.3 280.0,306.0 Z" fill="#c5a377"/>
    <path d="M280.0,306.0 Q343.9,313.3 408.0,309.0 Q406.9,315.0 408.0,321.0 Q343.1,320.8 280.0,306.0 Z" fill="#bb9666"/>
    <path d="M280.0,306.0 Q343.1,320.8 408.0,321.0 Q358.9,322.9 310.0,318.0 Q293.8,314.9 280.0,306.0 Z" fill="#ba9668"/>
    <path d="M310.0,318.0 Q358.9,322.9 408.0,321.0 Q385.9,318.2 365.0,326.0 Q337.0,325.5 310.0,318.0 Z" fill="#ab8760"/>
    <path d="M310.0,318.0 Q337.0,325.5 365.0,326.0 Q300.2,341.0 235.0,328.0 Q273.8,332.4 310.0,318.0 Z" fill="#a17c55"/>
    <path d="M310.0,318.0 Q273.8,332.4 235.0,328.0 Q194.5,329.0 155.0,320.0 Q232.3,305.0 310.0,318.0 Z" fill="#ab8760"/>
    <path d="M310.0,318.0 Q232.3,305.0 155.0,320.0 Q142.2,317.7 130.0,313.0 Q220.4,301.5 310.0,318.0 Z" fill="#ab8760"/>
    <path d="M130.0,313.0 Q205.3,317.0 280.0,306.0 Q293.8,314.9 310.0,318.0 Q220.4,301.5 130.0,313.0 Z" fill="#b18d61"/>
    <path d="M279.4,305.0 L309.4,317.0 L310.4,316.0 L280.4,304.0 Z" fill="#fbe9cf" opacity="0.4"/>
    <path d="M112.0,308.0 Q138.1,300.4 165.0,304.0 Q220.4,316.4 275.0,308.0 Q324.7,295.0 375.0,305.0 Q391.9,304.0 408.0,309.0 Q406.9,315.0 408.0,321.0 Q385.9,318.2 365.0,326.0 Q300.2,341.0 235.0,328.0 Q194.5,329.0 155.0,320.0 Q133.5,317.5 112.0,320.0 Q110.7,314.0 112.0,308.0 Z" fill="url(#jonaminz-stacked-stones-sheen)" clip-path="url(#jonaminz-stacked-stones-clip-slab)"/>
    <path d="M112.0,308.0 Q138.1,300.4 165.0,304.0 Q220.4,316.4 275.0,308.0 Q324.7,295.0 375.0,305.0 Q391.9,304.0 408.0,309.0 Q406.9,315.0 408.0,321.0 Q385.9,318.2 365.0,326.0 Q300.2,341.0 235.0,328.0 Q194.5,329.0 155.0,320.0 Q133.5,317.5 112.0,320.0 Q110.7,314.0 112.0,308.0 Z" fill="none" stroke="#5f4a36" stroke-width="0.9" stroke-linejoin="round" opacity="0.25"/>
  </g>

  <ellipse cx="255" cy="337" rx="76" ry="10" fill="url(#jonaminz-stacked-stones-contact-shadow)"/>

  <!-- ============ 底石（深墨綠灰，最大） ============ -->
  <!-- 輪廓 P1(78,404) P2(148,347) P3(225,352,內收凹口) P4(345,335)
       P5(422,368) P6(428,425) P7(305,458) P8(155,440)。
       2026-07-13：第四種切面模板——四個內部頂點（A/B/C/D 各管兩段弧），
       切面數 14 個是四顆裡最多的，中央由 A-B-C-D 四邊形對角切成兩塊，
       不是三角扇形。底石是最大、最靠近觀者的石頭，切面密度理應比上面
       小石頭更高，跟其他三顆的模板都不同。
       同日再改：切面邊界改二次貝茲曲線，色票收窄到 14 個彼此接近的深
       墨綠灰色階（不再是舊版由近黑到淺灰的大範圍明暗跳躍）。 -->
  <g id="jonaminz-stacked-stones-stone-base" data-part="stone" data-order="1" filter="url(#jonaminz-stacked-stones-shadow)">
    <path d="M150.0,378.0 Q161.4,408.3 155.0,440.0 Q112.4,430.8 78.0,404.0 Q111.4,383.8 150.0,378.0 Z" fill="#2a2b26"/>
    <path d="M150.0,378.0 Q111.4,383.8 78.0,404.0 Q108.4,369.8 148.0,347.0 Q153.9,362.2 150.0,378.0 Z" fill="#52534a"/>
    <path d="M280.0,362.0 Q214.4,351.1 148.0,347.0 Q185.6,363.5 225.0,352.0 Q253.1,353.5 280.0,362.0 Z" fill="#58594f"/>
    <path d="M280.0,362.0 Q253.1,353.5 225.0,352.0 Q286.8,356.2 345.0,335.0 Q314.5,353.4 280.0,362.0 Z" fill="#484941"/>
    <path d="M390.0,398.0 Q377.8,359.1 345.0,335.0 Q389.0,338.6 422.0,368.0 Q403.3,380.1 390.0,398.0 Z" fill="#3a3b34"/>
    <path d="M390.0,398.0 Q403.3,380.1 422.0,368.0 Q423.9,396.6 428.0,425.0 Q409.4,410.9 390.0,398.0 Z" fill="#2a2b26"/>
    <path d="M225.0,432.0 Q326.2,419.2 428.0,425.0 Q370.1,455.0 305.0,458.0 Q268.1,435.5 225.0,432.0 Z" fill="#1a1b17"/>
    <path d="M225.0,432.0 Q268.1,435.5 305.0,458.0 Q228.3,462.9 155.0,440.0 Q191.2,446.9 225.0,432.0 Z" fill="#22231e"/>
    <path d="M150.0,378.0 Q153.9,362.2 148.0,347.0 Q214.4,351.1 280.0,362.0 Q216.7,383.9 150.0,378.0 Z" fill="#4a4b42"/>
    <path d="M280.0,362.0 Q314.5,353.4 345.0,335.0 Q377.8,359.1 390.0,398.0 Q334.9,380.3 280.0,362.0 Z" fill="#40413a"/>
    <path d="M390.0,398.0 Q409.4,410.9 428.0,425.0 Q326.2,419.2 225.0,432.0 Q304.7,401.3 390.0,398.0 Z" fill="#24251f"/>
    <path d="M225.0,432.0 Q191.2,446.9 155.0,440.0 Q161.4,408.3 150.0,378.0 Q195.7,393.6 225.0,432.0 Z" fill="#2e2f29"/>
    <path d="M150.0,378.0 Q216.7,383.9 280.0,362.0 Q334.9,380.3 390.0,398.0 Q268.8,402.0 150.0,378.0 Z" fill="#4d4e45"/>
    <path d="M150.0,378.0 Q268.8,402.0 390.0,398.0 Q304.7,401.3 225.0,432.0 Q195.7,393.6 150.0,378.0 Z" fill="#32332d"/>
    <path d="M149.2,376.7 L279.2,360.7 L279.6,362.9 L149.6,378.9 Z" fill="#7c7c72" opacity="0.4"/>
    <path d="M78.0,404.0 Q108.4,369.8 148.0,347.0 Q185.6,363.5 225.0,352.0 Q286.8,356.2 345.0,335.0 Q389.0,338.6 422.0,368.0 Q423.9,396.6 428.0,425.0 Q370.1,455.0 305.0,458.0 Q228.3,462.9 155.0,440.0 Q112.4,430.8 78.0,404.0 Z" fill="url(#jonaminz-stacked-stones-sheen)" clip-path="url(#jonaminz-stacked-stones-clip-base)"/>
    <path d="M78.0,404.0 Q108.4,369.8 148.0,347.0 Q185.6,363.5 225.0,352.0 Q286.8,356.2 345.0,335.0 Q389.0,338.6 422.0,368.0 Q423.9,396.6 428.0,425.0 Q370.1,455.0 305.0,458.0 Q228.3,462.9 155.0,440.0 Q112.4,430.8 78.0,404.0 Z" fill="none" stroke="#0d0f0c" stroke-width="1" stroke-linejoin="round" opacity="0.32"/>
  </g>

  <g id="jonaminz-stacked-stones-ground-brush" data-part="ground" aria-label="地面筆觸">
    <path d="M48 463 C110 456 171 458 225 460 C300 462 372 455 456 462" fill="none" stroke="#8e806b" stroke-width="4.6" stroke-linecap="round" opacity="0.5"/>
    <path d="M73 468 C147 461 222 466 288 466 C348 466 394 460 437 465" fill="none" stroke="#6f6657" stroke-width="2.3" stroke-linecap="round" opacity="0.42"/>
    <path d="M34 471 C111 469 145 472 204 470" fill="none" stroke="#b9aa91" stroke-width="1.5" stroke-linecap="round" opacity="0.64"/>
    <path d="M272 471 C330 469 393 473 470 468" fill="none" stroke="#b9aa91" stroke-width="1.3" stroke-linecap="round" opacity="0.56"/>
    <path d="M92 476 C154 471 213 477 255 474" fill="none" stroke="#5f584d" stroke-width="1.1" stroke-linecap="round" opacity="0.34"/>
    <path d="M307 476 C343 473 375 478 417 473" fill="none" stroke="#5f584d" stroke-width="1" stroke-linecap="round" opacity="0.28"/>
    <path d="M54 458 L112 456" stroke="#c7b9a1" stroke-width="1" stroke-linecap="round" opacity="0.72"/>
    <path d="M410 458 L461 460" stroke="#c7b9a1" stroke-width="1" stroke-linecap="round" opacity="0.68"/>
  </g>
</svg>
