<!--
檔案位置：jonaminz/assets/img/jonaminz-zen-logo.svg
時間戳：2026-07-13 18:39 UTC+8
用途：以點對稱補完 z 的設計字標搭配圓相、乾擦地面筆觸與獨立疊石；竹枝暫不放回。
-->
<svg xmlns="http://www.w3.org/2000/svg" width="1200" height="460" viewBox="0 0 1200 460"
     role="img" aria-labelledby="jonaminz-zen-logo-title jonaminz-zen-logo-desc"
     focusable="false" data-component="jonaminz-zen-logo">
  <title id="jonaminz-zen-logo-title">Jonaminz 圓相設計字標與平衡疊石</title>
  <desc id="jonaminz-zen-logo-desc">以點對稱補完 z 的 Jonaminz 設計字標置於暖米褐色圓相內，下方以帶飛白的乾擦筆觸連接獨立疊石。</desc>
  <defs>
    <mask id="jonaminz-zen-logo-ground-reveal-mask" maskUnits="userSpaceOnUse" x="338" y="378" width="844" height="42">
      <path id="jonaminz-zen-logo-ground-main-reveal" data-animation-target="ground-line-main-reveal" pathLength="1"
            d="M350 401 C520 388 690 388 850 394 C985 398 1087 400 1166 405"
            fill="none" stroke="#fff" stroke-width="30" stroke-linecap="round"/>
    </mask>
  </defs>
  <g id="jonaminz-zen-logo-ground-line" data-part="ground-line">
    <g id="jonaminz-zen-logo-ground-line-main" data-animation-target="ground-line-main"
       mask="url(#jonaminz-zen-logo-ground-reveal-mask)" fill="#c2af98">
      <!-- 2026-07-14 改版：原本整條筆觸粗細幾乎一致（8-10px），只在中段
           挖幾個小洞模擬乾擦——讀起來比較像「等寬緞帶挖洞」而不是真的
           乾擦筆觸。改法：沿著同一條 reveal-mask 中心線，用取樣+法線
           偏移算出一條真正「由粗到細」的漸縮筆刷形（起筆 15px 粗，收筆
           只剩約 1.2px），跟竹幹的斜切填色技法同一套邏輯
          （見 gen-taper-brush.mjs）；乾擦挖洞只留在還夠粗的前半段，
           後段本來就細，硬挖洞只會碎成小塊，直接拿掉。 -->
      <path fill-rule="evenodd" opacity=".60"
            d="M350.6,408.5 L363.3,407.3 L376.0,406.2 L388.7,405.2 L401.4,404.3 L414.1,403.4 L426.8,402.6 L439.5,401.8 L452.2,401.1 L464.9,400.4 L477.6,399.7 L490.3,399.1 L502.9,398.5 L515.6,398.0 L528.2,397.6 L540.9,397.1 L553.5,396.7 L566.1,396.4 L578.7,396.1 L591.2,395.8 L603.8,395.5 L616.3,395.3 L628.9,395.2 L641.4,395.0 L653.8,394.9 L666.3,394.9 L678.7,394.8 L691.1,394.8 L703.5,394.9 L715.9,394.9 L728.2,395.0 L740.5,395.1 L752.8,395.3 L765.0,395.5 L777.3,395.7 L789.4,395.9 L801.6,396.2 L813.7,396.5 L825.8,396.8 L837.9,397.1 L849.9,397.5 L860.0,397.7 L869.9,397.9 L879.7,398.1 L889.4,398.3 L899.0,398.5 L908.5,398.7 L917.8,398.9 L927.0,399.1 L936.1,399.2 L945.1,399.4 L954.0,399.6 L962.8,399.8 L971.4,399.9 L980.0,400.1 L988.4,400.3 L996.7,400.4 L1004.9,400.6 L1013.0,400.8 L1021.0,400.9 L1028.9,401.1 L1036.7,401.3 L1044.4,401.5 L1052.0,401.6 L1059.5,401.8 L1066.8,402.0 L1074.1,402.2 L1081.3,402.4 L1088.4,402.6 L1095.3,402.8 L1102.2,403.0 L1109.0,403.2 L1115.7,403.5 L1122.3,403.7 L1128.8,403.9 L1135.2,404.2 L1141.6,404.5 L1147.8,404.7 L1153.9,405.0 L1160.0,405.3 L1166.0,405.6 L1166.0,404.4 L1160.1,404.0 L1154.0,403.5 L1147.9,403.1 L1141.6,402.7 L1135.3,402.3 L1128.9,401.9 L1122.4,401.5 L1115.8,401.2 L1109.1,400.8 L1102.3,400.5 L1095.5,400.1 L1088.5,399.8 L1081.4,399.4 L1074.2,399.1 L1067.0,398.7 L1059.6,398.4 L1052.1,398.1 L1044.5,397.8 L1036.8,397.5 L1029.1,397.1 L1021.2,396.8 L1013.2,396.5 L1005.1,396.2 L996.9,395.9 L988.5,395.6 L980.1,395.3 L971.6,394.9 L962.9,394.6 L954.2,394.3 L945.3,394.0 L936.3,393.7 L927.2,393.3 L918.0,393.0 L908.6,392.7 L899.2,392.3 L889.6,392.0 L879.9,391.6 L870.1,391.3 L860.2,390.9 L850.1,390.5 L838.1,390.0 L826.0,389.5 L814.0,389.0 L801.8,388.6 L789.7,388.2 L777.5,387.8 L765.2,387.4 L753.0,387.1 L740.7,386.7 L728.3,386.4 L716.0,386.2 L703.6,386.0 L691.2,385.7 L678.8,385.6 L666.3,385.4 L653.8,385.3 L641.3,385.2 L628.8,385.2 L616.3,385.2 L603.7,385.2 L591.1,385.3 L578.5,385.4 L565.9,385.5 L553.2,385.7 L540.6,385.9 L527.9,386.1 L515.2,386.4 L502.5,386.7 L489.8,387.1 L477.1,387.4 L464.4,387.9 L451.6,388.4 L438.9,388.9 L426.1,389.4 L413.3,390.0 L400.6,390.7 L387.8,391.3 L375.0,392.1 L362.2,392.8 L349.4,393.5 Z
               M409 398 C438 396 467 394.8 493 395.2 C475 397.2 447 399.7 418 401 C411 401.2 406 399.7 409 398 Z
               M548 392 C587 389.8 626 389.9 660 391.1 C626 392.2 588 394.1 554 394.3 C548 394.3 545 393 548 392 Z
               M705 392.5 C746 391.4 790 392.7 826 394 C789 394.8 748 395.3 711 395.1 C706 395.1 702 393.7 705 392.5 Z"/>
      <path opacity=".30"
            d="M374 404 C470 399 553 402 641 399 C748 396 858 400 957 401 C1037 402 1098 405 1146 407 C1078 407 1018 405 955 404 C850 403 749 400 643 402 C549 405 464 402 374 407 Z"/>
    </g>
    <g id="jonaminz-zen-logo-ground-line-fibers" data-animation-target="ground-line-fibers"
       fill="none" stroke="#c2af98" stroke-linecap="round">
      <path id="jonaminz-zen-logo-ground-line-fiber-01" data-animation-target="ground-line-fiber" pathLength="1" d="M347 405 C438 401 521 404 612 400 C714 396 840 401 945 401" stroke-width="1.15" opacity=".42"/>
      <path id="jonaminz-zen-logo-ground-line-fiber-02" data-animation-target="ground-line-fiber" pathLength="1" d="M386 410 C487 403 571 407 655 404 C770 400 900 406 1030 404" stroke-width=".78" opacity=".30"/>
      <path id="jonaminz-zen-logo-ground-line-fiber-03" data-animation-target="ground-line-fiber" pathLength="1" d="M471 388 C552 384 635 385 706 387" stroke-width=".68" opacity=".28"/>
      <path id="jonaminz-zen-logo-ground-line-fiber-04" data-animation-target="ground-line-fiber" pathLength="1" d="M744 404 C843 402 951 405 1119 411" stroke-width=".56" opacity=".28"/>
      <path id="jonaminz-zen-logo-ground-line-fiber-05" data-animation-target="ground-line-fiber" pathLength="1" d="M1032 397 C1089 398 1133 401 1172 404" stroke-width=".92" opacity=".38"/>
      <path id="jonaminz-zen-logo-ground-line-fiber-06" data-animation-target="ground-line-fiber" pathLength="1" d="M360 394 C398 392 426 391 456 391" stroke-width=".48" opacity=".24"/>
    </g>
  </g>
  <svg id="jonaminz-zen-logo-enso" data-part="enso" x="51" y="41" width="365" height="390" viewBox="0 0 792 824" preserveAspectRatio="xMidYMid meet">
<title id="jonaminz-enso-c-title">Jonaminz 圓相毛筆筆觸</title>
  <desc id="jonaminz-enso-c-desc">由原始筆刷裁圖直接描摹，保留斷墨、飛白、毛束孔洞與右側淡墨游絲的暖米褐色圓相。</desc>
  <defs>
    <path id="jonaminz-enso-c-gesture" data-animation-target="reveal" pathLength="1"
          d="M650 145 C505 30 285 32 130 185 C3 310 25 532 159 674 C291 814 508 804 690 616"/>
  </defs>
  <g id="jonaminz-enso-c-traced-brush" data-part="traced-brush">
    <path id="jonaminz-enso-c-ink" data-part="ink"
          d="M 395.344 42.745 C 387.871 42.983, 384.862 43.462, 383.952 44.558 C 383.272 45.378, 382.892 46.204, 383.107 46.394 C 383.323 46.585, 385.750 47.745, 388.500 48.972 L 393.500 51.203 391.500 52.014 C 390.400 52.461, 382.075 53.573, 373 54.486 C 363.925 55.400, 353.144 56.826, 349.042 57.657 C 344.940 58.487, 340.367 58.923, 338.879 58.626 C 337.168 58.284, 335.730 58.620, 334.965 59.542 C 334.299 60.344, 332.270 61, 330.454 61 C 325.839 61, 312.272 63.810, 305.500 66.168 C 292.985 70.526, 282.238 74.764, 275 78.196 C 270.325 80.413, 264.700 83.025, 262.500 84.001 C 258.398 85.821, 245.845 91.955, 242.417 93.814 C 241.363 94.386, 239.825 95.119, 239 95.443 C 238.175 95.767, 235.475 97.358, 233 98.979 C 230.525 100.599, 227.037 102.594, 225.250 103.412 C 223.463 104.229, 222 105.303, 222 105.797 C 222 106.292, 220.313 107.437, 218.250 108.342 C 214.284 110.082, 209.543 113.184, 204.363 117.429 C 202.637 118.843, 200.504 120, 199.621 120 C 198.739 120, 197.455 120.900, 196.768 122 C 196.081 123.100, 195.065 124.008, 194.509 124.017 C 193.954 124.026, 191.733 125.826, 189.574 128.017 C 187.415 130.208, 185.351 132, 184.988 132 C 184.204 132, 173.773 140.352, 169.500 144.400 C 167.850 145.964, 165.487 147.915, 164.250 148.736 C 163.012 149.558, 162 150.853, 162 151.615 C 162 152.377, 161.100 153, 160 153 C 158.856 153, 158 153.667, 158 154.557 C 158 155.413, 154.665 159.576, 150.589 163.807 C 139.048 175.787, 117.443 200.307, 116.717 202.250 C 115.968 204.253, 113.930 204.530, 112.256 202.856 C 111.396 201.996, 110.412 202.001, 108.306 202.874 C 105.558 204.012, 104.764 205.271, 97.505 220 C 93.229 228.675, 90.471 232.982, 88.148 234.609 C 86.965 235.438, 85.547 235.838, 84.998 235.499 C 83.214 234.396, 84.027 230.617, 87.296 224.818 C 92.239 216.050, 97.166 207.805, 99.438 204.500 C 104.334 197.377, 122.346 175.856, 131.660 166 C 137.602 159.713, 143 153.057, 143 152.018 C 143 151.629, 145.137 149.261, 147.750 146.757 C 150.362 144.252, 155.425 139.405, 159 135.985 C 164.936 130.308, 173.915 122.668, 179.847 118.248 C 181.137 117.287, 183.264 115.600, 184.573 114.500 C 189.999 109.940, 205.020 100.069, 206.595 100.028 C 207.197 100.013, 208.505 99.100, 209.500 98 C 210.495 96.900, 211.738 96, 212.261 96 C 212.783 96, 214.548 94.875, 216.182 93.500 C 217.816 92.125, 219.949 91, 220.922 91 C 221.894 91, 223.505 90.100, 224.500 89 C 225.495 87.900, 226.732 87, 227.247 87 C 227.763 87, 229.329 86.100, 230.727 85 C 232.126 83.900, 233.889 83, 234.645 83 C 235.402 83, 238.343 81.367, 241.182 79.372 C 244.021 77.376, 247.954 75.316, 249.922 74.793 C 253.707 73.788, 260.828 70.487, 265 67.804 C 266.375 66.920, 269.075 65.870, 271 65.470 C 272.925 65.071, 275.388 64.127, 276.473 63.372 C 277.557 62.618, 279.364 62, 280.487 62 C 281.611 62, 284.098 61.160, 286.015 60.133 C 287.932 59.107, 291.075 57.933, 293 57.525 C 294.925 57.118, 297.903 55.933, 299.618 54.892 C 301.333 53.851, 303.953 53, 305.440 53 C 308.733 53, 317.231 48.199, 316.716 46.630 C 316.081 44.693, 311.354 44.796, 306.323 46.857 C 303.671 47.943, 297 50.199, 291.500 51.870 C 280.174 55.310, 273.421 57.609, 270.500 59.020 C 269.400 59.551, 266.514 60.670, 264.087 61.506 C 261.660 62.342, 257.160 64.395, 254.087 66.068 C 251.014 67.740, 245.673 70.246, 242.218 71.636 C 235.983 74.144, 224.069 80.875, 220.790 83.743 C 218.809 85.474, 209.349 89.992, 207.651 90.017 C 207.018 90.026, 204.728 91.831, 202.562 94.029 C 200.391 96.232, 196.987 98.465, 194.973 99.007 C 192.965 99.548, 188.704 102.282, 185.504 105.082 C 182.304 107.882, 177.844 111.321, 175.593 112.724 C 173.342 114.126, 169.234 117.350, 166.464 119.887 C 163.695 122.424, 157.395 128.099, 152.464 132.498 C 147.534 136.897, 137.405 146.572, 129.955 153.998 C 117.339 166.574, 111.591 173.296, 99.853 189.203 C 97.297 192.666, 89.512 205.625, 82.552 218 C 75.591 230.375, 69.461 241.175, 68.928 242 C 66.893 245.153, 62.002 255.556, 62.001 256.733 C 62 257.864, 54.676 274.132, 51.526 280 C 50.787 281.375, 49.856 284.300, 49.457 286.500 C 49.057 288.700, 47.890 292.170, 46.865 294.210 C 45.839 296.251, 44.997 298.501, 44.994 299.210 C 44.990 299.920, 44.332 301.757, 43.531 303.292 C 42.730 304.828, 41.802 307.753, 41.468 309.792 C 41.134 311.832, 39.941 316.078, 38.817 319.229 C 37.276 323.547, 36.869 326.674, 37.166 331.925 C 37.382 335.757, 37.772 339.105, 38.032 339.365 C 38.292 339.625, 39.683 340.133, 41.124 340.495 L 43.744 341.153 46.377 336.440 L 49.011 331.728 49.397 319.504 C 49.702 309.839, 50.224 306.282, 51.891 302.513 C 53.051 299.891, 54 296.937, 54 295.948 C 54 293.399, 59.140 280.895, 64.004 271.610 C 68.974 262.122, 79.006 248.500, 81.023 248.500 C 83.012 248.500, 83.553 252.123, 81.760 253.434 C 80.045 254.688, 74.358 266.520, 69.231 279.500 C 68.145 282.250, 66.266 286.975, 65.055 290 C 62.019 297.587, 60.094 304.223, 58.453 312.762 C 57.685 316.757, 56.620 320.841, 56.086 321.839 C 55.552 322.837, 54.814 326.094, 54.446 329.077 C 54.079 332.060, 52.755 336.075, 51.504 338 C 50.254 339.925, 48.947 342.731, 48.600 344.235 C 48.171 346.094, 47.124 347.182, 45.330 347.632 C 43.878 347.996, 41.983 347.848, 41.118 347.303 C 40.253 346.757, 39.290 345.228, 38.978 343.905 C 38.111 340.235, 35.628 340.982, 34.579 345.227 C 33.950 347.776, 34.027 349.764, 34.825 351.515 L 35.991 354.075 37.896 353.056 C 39.373 352.265, 39.942 352.407, 40.433 353.686 C 40.781 354.593, 41.344 357.996, 41.684 361.249 C 42.282 366.973, 41.059 380.610, 38.746 394 C 38.126 397.588, 37.667 410.132, 37.720 422 C 37.793 438.124, 38.340 447.111, 39.909 457.939 C 41.059 465.881, 42 474.107, 42 476.220 C 42 478.821, 41.483 480.261, 40.399 480.677 C 39.519 481.015, 38.400 480.663, 37.914 479.896 C 37.428 479.128, 37.024 475.942, 37.015 472.815 C 37.007 469.688, 36.513 465.863, 35.918 464.315 C 35.322 462.767, 34.433 459.058, 33.941 456.074 C 33.450 453.089, 32.587 450.187, 32.024 449.624 C 31.325 448.925, 30.617 448.983, 29.796 449.804 C 28.035 451.565, 28.760 465.742, 31.072 474.783 C 32.133 478.928, 33 485.303, 33 488.949 C 33 493.759, 33.576 496.664, 35.101 499.539 C 36.638 502.438, 37.266 505.645, 37.442 511.500 C 37.582 516.149, 38.544 522.223, 39.738 526 C 40.869 529.575, 42.775 535.875, 43.973 540 C 46.369 548.246, 49.152 555.515, 52.089 561.198 C 53.140 563.232, 54 565.646, 54 566.562 C 54 567.478, 54.823 569.864, 55.829 571.864 C 59.333 578.832, 61.853 584.517, 62.538 587 C 63.585 590.792, 66.896 595.955, 71.839 601.500 C 74.290 604.250, 77.119 608.300, 78.126 610.500 C 79.132 612.700, 79.969 615.850, 79.985 617.500 C 80 619.150, 80.907 621.850, 82 623.500 C 83.093 625.150, 83.990 627.292, 83.993 628.260 C 83.997 629.228, 84.900 630.790, 86 631.732 C 87.100 632.674, 88 633.963, 88 634.596 C 88 636.219, 92.768 644.562, 94.532 646.026 C 95.339 646.697, 96 647.715, 96 648.289 C 96 648.863, 96.692 650.045, 97.537 650.916 C 98.383 651.787, 100.506 654.750, 102.256 657.500 C 105.586 662.733, 121.285 679, 123.005 679 C 125.151 679, 123.795 676.125, 119.430 671.423 C 116.917 668.715, 114.154 665.150, 113.291 663.500 C 112.427 661.850, 111.436 660.275, 111.087 660 C 110.739 659.725, 109.689 658.375, 108.755 657 C 107.821 655.625, 105.475 652.250, 103.543 649.500 C 101.611 646.750, 100.024 644.131, 100.015 643.680 C 100.007 643.229, 98.628 640.867, 96.952 638.430 C 95.276 635.994, 93.276 634, 92.509 634 C 91.741 634, 90.413 633, 89.557 631.777 C 87.864 629.361, 87.463 624.450, 88.887 623.570 C 89.374 623.269, 90.329 623.692, 91.009 624.511 C 91.689 625.330, 92.865 626, 93.622 626 C 94.380 626, 95 626.374, 95 626.830 C 95 627.287, 96.820 629.649, 99.045 632.080 C 101.269 634.511, 103.756 637.737, 104.570 639.250 C 105.385 640.763, 106.459 642, 106.958 642 C 107.457 642, 108.184 643.004, 108.573 644.231 C 109.499 647.148, 111.593 650.087, 123 664.482 C 132.906 676.982, 142.128 686.676, 157.750 701.008 C 162.837 705.676, 167 710.058, 167 710.747 C 167 712.509, 164.334 712.313, 163.638 710.500 C 163.322 709.675, 162.197 709, 161.138 709 C 160.080 709, 158.955 708.325, 158.638 707.500 C 158.322 706.675, 157.534 706, 156.887 706 C 156.240 706, 154.763 705.074, 153.605 703.942 C 147.401 697.877, 143.812 694.998, 143.046 695.472 C 141.828 696.224, 142.990 700, 144.439 700 C 145.102 700, 148.868 703.037, 152.809 706.750 C 164.107 717.395, 165.786 718.840, 169.796 721.371 C 171.870 722.681, 176.027 725.955, 179.034 728.648 C 182.040 731.340, 186.300 734.695, 188.500 736.102 C 192.606 738.728, 198.666 742.730, 204.723 746.814 C 208.155 749.127, 211.426 751.145, 218 755.003 C 219.925 756.132, 222.698 757.831, 224.162 758.778 C 230.815 763.081, 238.091 766.973, 245 769.925 C 249.125 771.688, 253.850 773.726, 255.500 774.454 C 264.466 778.412, 266.772 779.186, 271.155 779.705 C 275.092 780.171, 276.076 779.966, 276.612 778.570 C 276.971 777.632, 276.756 776.356, 276.133 775.733 C 275.510 775.110, 275 774.240, 275 773.800 C 275 772.738, 279.342 772.771, 280.550 773.842 C 281.072 774.305, 284.200 775.255, 287.500 775.953 C 290.800 776.651, 293.950 777.554, 294.500 777.959 C 295.050 778.364, 299.391 779.889, 304.146 781.348 C 308.902 782.807, 314.302 784.003, 316.146 784.006 C 317.991 784.010, 320.751 784.665, 322.280 785.463 C 323.810 786.260, 328.727 787.415, 333.207 788.028 C 337.688 788.642, 343.186 789.738, 345.427 790.463 C 347.667 791.189, 352.650 792.036, 356.500 792.346 C 360.350 792.655, 366.150 793.615, 369.388 794.477 C 373.093 795.465, 381.991 796.275, 393.388 796.662 C 417.526 797.483, 415.829 797.488, 429.823 796.542 L 442.145 795.708 443.633 793.438 C 444.451 792.189, 445.809 790.904, 446.650 790.581 C 447.492 790.258, 449.476 790.759, 451.059 791.694 L 453.937 793.394 458.719 792.258 C 461.348 791.633, 466.099 790.836, 469.276 790.486 C 474.974 789.858, 491.858 785.881, 505.500 781.954 C 521.495 777.349, 526.876 775.459, 534 771.947 C 538.125 769.913, 542.625 767.906, 544 767.487 C 545.375 767.068, 547.573 765.887, 548.885 764.862 C 550.197 763.838, 551.829 763, 552.512 763 C 553.196 763, 554.276 762.372, 554.913 761.605 C 555.550 760.837, 557.743 759.902, 559.786 759.526 C 561.829 759.150, 567.550 756.851, 572.500 754.418 C 584.179 748.677, 589.868 745.148, 599.340 737.770 C 602.002 735.697, 604.744 734, 605.435 734 C 606.125 734, 607.505 733.100, 608.500 732 C 609.495 730.900, 610.925 730, 611.676 730 C 612.428 730, 613.536 728.918, 614.139 727.595 C 614.741 726.273, 617.432 723.994, 620.117 722.533 C 622.803 721.071, 625 719.228, 625 718.438 C 625 716.178, 622.157 716.752, 619.326 719.583 C 617.905 721.004, 614.413 723.058, 611.566 724.148 C 608.719 725.237, 604.739 727.640, 602.722 729.488 C 600.705 731.336, 598.060 733.164, 596.844 733.549 C 593.911 734.480, 587.756 737.830, 581 742.172 C 577.975 744.116, 573.718 746.289, 571.539 747.001 C 566.484 748.652, 558.259 752.771, 557.471 754.048 C 556.321 755.908, 549.440 758.811, 544.477 759.531 C 541.739 759.928, 539.011 760.640, 538.414 761.113 C 537.816 761.586, 535.566 762.597, 533.414 763.359 C 531.261 764.121, 527.245 766.077, 524.489 767.706 C 520.587 770.011, 517.759 770.811, 511.709 771.323 C 507.436 771.684, 502.716 772.593, 501.220 773.342 C 496.198 775.858, 484.826 778.083, 472.115 779.037 C 465.177 779.557, 454.775 780.700, 449 781.576 C 443.225 782.452, 435.332 783.512, 431.460 783.931 C 424.448 784.690, 380.629 784.337, 378.250 783.501 C 377.563 783.260, 377 782.149, 377 781.031 C 377 779.914, 377.563 778.967, 378.250 778.927 C 378.938 778.887, 391.200 778.749, 405.500 778.621 C 424.240 778.453, 432.432 778.019, 434.839 777.065 C 437.056 776.187, 440.249 775.946, 444.339 776.348 C 452.196 777.122, 473.714 775.483, 475.533 773.972 C 476.295 773.340, 480.110 772.422, 484.010 771.933 C 487.911 771.443, 492.079 770.358, 493.273 769.521 C 494.768 768.474, 497.885 768, 503.270 768 L 511.095 768 513.412 765.500 C 514.729 764.080, 516.842 763, 518.306 763 C 519.723 763, 521.162 762.547, 521.504 761.993 C 522.570 760.268, 518.857 759.611, 515.603 760.948 C 513.896 761.649, 509.125 762.440, 505 762.706 C 500.875 762.972, 495.700 763.885, 493.500 764.735 C 491.300 765.584, 485.570 766.554, 480.767 766.890 L 472.034 767.500 470.422 769.805 C 469.150 771.624, 468.042 772.045, 465.163 771.805 C 462.833 771.610, 461.411 770.940, 461.223 769.950 C 461.012 768.832, 462.544 767.943, 466.715 766.765 C 469.897 765.866, 474.300 764.847, 476.500 764.501 C 478.700 764.155, 482.075 763.068, 484 762.085 C 485.925 761.102, 489.750 759.983, 492.500 759.597 C 495.250 759.212, 500.200 758.023, 503.500 756.955 C 519.589 751.750, 522.124 751, 523.636 751 C 524.531 751, 526.667 750.151, 528.382 749.114 C 530.097 748.077, 532.625 746.912, 534 746.527 C 536.456 745.838, 549.925 739.675, 557.198 735.913 C 559.232 734.861, 561.539 734, 562.326 734 C 563.112 734, 564.337 733.299, 565.048 732.442 C 565.759 731.585, 567.727 730.220, 569.420 729.407 C 571.114 728.594, 574.110 726.933, 576.079 725.715 C 578.047 724.497, 582.097 722.003, 585.079 720.174 C 592.897 715.377, 595.766 713.184, 602.500 706.857 C 605.800 703.756, 610.525 699.561, 613 697.534 C 620.912 691.053, 643.062 668.831, 647.222 663.200 C 649.433 660.207, 652.081 656.919, 653.107 655.893 C 654.747 654.253, 666.345 639.993, 670.505 634.500 C 675.803 627.507, 681 619.900, 681 619.138 C 681 618.647, 681.712 617.654, 682.582 616.932 C 683.452 616.210, 684.914 614.155, 685.832 612.366 C 688.631 606.908, 694.169 597.637, 696.138 595.115 C 697.162 593.803, 698 591.946, 698 590.988 C 698 590.029, 698.663 588.695, 699.474 588.022 C 700.284 587.349, 701.235 585.263, 701.587 583.385 C 701.940 581.508, 702.907 579.592, 703.737 579.127 C 705.435 578.177, 706.048 571.720, 704.500 571.098 C 703.950 570.877, 701.700 574.066, 699.500 578.183 C 697.300 582.301, 691.623 591.481, 686.885 598.585 C 682.146 605.688, 677.571 612.850, 676.717 614.500 C 675.194 617.442, 658.571 636.434, 649.896 645.142 C 647.478 647.570, 642.575 651.991, 639 654.967 C 635.425 657.943, 632.050 660.874, 631.500 661.479 C 630.950 662.085, 627.575 664.989, 624 667.933 C 620.425 670.877, 617.275 673.561, 617 673.898 C 615.727 675.459, 608.476 680.386, 603.739 682.909 C 595.099 687.511, 591 690.146, 591 691.099 C 591 691.594, 591.904 692, 593.010 692 C 594.115 692, 595.790 691.100, 596.732 690 C 598.532 687.897, 602.455 687.309, 603.491 688.986 C 603.827 689.529, 602.408 691.441, 600.339 693.236 C 598.270 695.031, 595.793 697.267, 594.833 698.206 C 593.874 699.144, 590.256 701.374, 586.794 703.161 C 583.333 704.948, 580.340 706.797, 580.145 707.270 C 579.950 707.743, 578.825 708.559, 577.645 709.085 C 576.465 709.610, 573.475 711.355, 571 712.963 C 566.797 715.693, 558.876 719.752, 549.500 723.979 C 547.300 724.971, 543.426 726.732, 540.890 727.891 C 538.355 729.051, 535.541 730, 534.637 730 C 533.733 730, 531.314 730.900, 529.261 732 C 527.209 733.100, 524.623 734.010, 523.515 734.022 C 522.407 734.034, 519.581 734.915, 517.236 735.979 C 514.891 737.044, 511.291 738.219, 509.236 738.591 C 507.181 738.963, 504.366 739.840, 502.979 740.541 C 501.592 741.241, 496.642 742.509, 491.979 743.358 C 487.316 744.207, 479.900 745.579, 475.500 746.407 C 461.131 749.110, 437.929 751.013, 415 751.369 C 402.625 751.562, 387.325 751.286, 381 750.756 C 370.387 749.868, 355.656 746.990, 354.182 745.516 C 353.126 744.459, 356.323 743.031, 359.782 743.015 C 361.587 743.007, 364.625 743.652, 366.532 744.449 L 370 745.898 373.468 744.449 C 375.375 743.652, 377.650 743, 378.523 743 C 379.396 743, 382.219 743.961, 384.796 745.135 L 389.483 747.270 413.115 746.362 C 430.373 745.699, 437.186 745.090, 438.374 744.105 C 439.268 743.362, 440 742.408, 440 741.985 C 440 740.409, 436.782 740.068, 431.863 741.123 C 428.142 741.921, 422.235 741.882, 409.647 740.979 C 400.216 740.302, 390.250 739.107, 387.500 738.324 C 384.750 737.541, 378.675 736.497, 374 736.004 C 369.325 735.511, 362.800 734.639, 359.500 734.066 C 352.403 732.834, 335.557 728.615, 332 727.180 C 330.625 726.625, 326.125 725.160, 322 723.924 C 307.340 719.534, 279.908 707.653, 267.720 700.415 C 264.299 698.383, 258.350 694.685, 254.500 692.196 C 250.650 689.708, 245.701 686.508, 243.501 685.086 C 241.302 683.664, 235.109 679.191, 229.739 675.148 C 223.829 670.697, 219.389 668.021, 218.488 668.366 C 217.670 668.680, 217 669.540, 217 670.277 C 217 671.015, 217.563 672.303, 218.250 673.140 C 218.938 673.978, 221.862 676.352, 224.750 678.417 C 227.637 680.481, 230 682.582, 230 683.085 C 230 683.588, 230.659 684, 231.465 684 C 232.270 684, 233.411 684.900, 234 686 C 234.589 687.100, 235.552 688, 236.141 688 C 236.730 688, 238.548 689.125, 240.182 690.500 C 241.816 691.875, 243.794 693, 244.577 693 C 245.360 693, 246 693.460, 246 694.021 C 246 694.583, 247.238 695.584, 248.750 696.245 C 252.133 697.723, 259 703.031, 259 704.167 C 259 704.625, 257.944 705, 256.653 705 C 255.362 705, 253.268 704.100, 252 703 C 250.732 701.900, 249.200 700.997, 248.597 700.994 C 247.359 700.987, 238.159 694.740, 229.461 688 C 226.267 685.525, 215.744 675.548, 206.077 665.830 C 186.666 646.316, 183.570 643.047, 176.872 635 C 169.975 626.714, 159 612.053, 159 611.127 C 159 610.678, 158.100 609.495, 157 608.500 C 155.900 607.505, 155 606.145, 155 605.480 C 155 604.814, 154.162 603.197, 153.138 601.885 C 152.113 600.573, 150.938 598.424, 150.525 597.109 C 150.113 595.793, 148.495 592.643, 146.931 590.109 C 143.346 584.301, 137 571.623, 137 570.268 C 137 569.705, 136.325 568.685, 135.500 568 C 134.675 567.315, 134 566.016, 134 565.113 C 134 564.209, 133.163 561.902, 132.140 559.985 C 131.117 558.068, 129.939 555.375, 129.522 554 C 129.105 552.625, 128.194 550.825, 127.499 550 C 126.803 549.175, 125.234 545.350, 124.012 541.500 C 121.481 533.528, 119.619 527.842, 118.118 523.500 C 117.020 520.324, 114.413 510.064, 111.124 495.978 C 110.029 491.291, 108.638 482.516, 108.031 476.478 C 107.425 470.440, 106.480 462.125, 105.933 458 C 105.385 453.875, 104.869 441.950, 104.786 431.500 C 104.667 416.540, 104.974 411.437, 106.230 407.500 C 107.108 404.750, 108.108 397.605, 108.453 391.623 C 108.798 385.635, 109.758 379.121, 110.590 377.131 C 111.420 375.143, 112.553 371.495, 113.107 369.025 C 113.660 366.554, 114.704 363.850, 115.427 363.016 C 116.260 362.055, 116.983 357.107, 117.401 349.500 C 117.905 340.335, 118.482 336.924, 119.841 335.063 C 120.821 333.723, 122.157 332.448, 122.811 332.230 C 124.406 331.698, 124.374 337.470, 122.766 340.316 C 122.087 341.517, 121.238 346.100, 120.878 350.500 C 120.519 354.900, 119.745 360.300, 119.160 362.500 C 118.575 364.700, 117.572 370.771, 116.931 375.992 C 116.290 381.213, 115.270 386.613, 114.663 387.992 C 113.130 391.475, 112.517 457.988, 113.925 467.954 C 114.512 472.104, 115.464 478.875, 116.041 483 C 117.128 490.781, 120.193 502.385, 125.021 517 C 126.565 521.675, 128.349 527.525, 128.986 530 C 130.034 534.078, 131.441 537.641, 135.498 546.500 C 136.254 548.150, 137.161 550.957, 137.513 552.739 C 137.866 554.520, 138.547 556.220, 139.027 556.517 C 140.218 557.253, 146 568.740, 146 570.370 C 146 571.564, 150.354 580.611, 153.281 585.500 C 162.131 600.280, 172.209 615.236, 173.641 615.714 C 174.253 615.918, 175.047 615.321, 175.405 614.387 C 175.803 613.349, 175.074 611.271, 173.528 609.041 C 172.138 607.034, 171 605.002, 171 604.525 C 171 604.048, 170.252 602.831, 169.339 601.822 C 166.869 599.093, 164.854 595.292, 156.708 578 C 155.024 574.425, 153.319 571.275, 152.920 571 C 152.521 570.725, 151.026 567.857, 149.597 564.626 C 148.169 561.395, 146.990 557.570, 146.978 556.126 C 146.966 554.682, 146.028 551.475, 144.895 549 C 141.462 541.507, 138 531.879, 138 529.826 C 138 528.761, 137.044 525.792, 135.876 523.227 C 133.397 517.787, 132.521 512.089, 133.858 510.104 C 135.162 508.168, 138 509.489, 138 512.033 C 138 514.842, 141.880 523.994, 144.158 526.557 C 145.163 527.688, 146.276 530.838, 146.631 533.557 C 146.986 536.275, 147.678 539.013, 148.170 539.641 C 148.662 540.268, 149.622 542.709, 150.304 545.065 C 150.986 547.421, 152.097 549.532, 152.772 549.757 C 154.819 550.440, 154.266 541.489, 152 537.261 C 150.900 535.209, 150 532.341, 150 530.887 C 150 529.434, 149.325 527.685, 148.500 527 C 147.675 526.315, 147 524.570, 147 523.121 C 147 519.364, 145.388 514.245, 143.660 512.518 C 142.848 511.705, 141.884 509.118, 141.518 506.770 C 141.153 504.421, 140.259 501.150, 139.531 499.500 C 138.803 497.850, 137.882 494.475, 137.485 492 C 137.088 489.525, 136.138 486.277, 135.373 484.783 C 134.609 483.289, 133.687 477.901, 133.326 472.810 C 132.911 466.968, 132.035 462.436, 130.951 460.526 C 130.006 458.862, 128.955 454.265, 128.615 450.312 C 128.275 446.358, 127.548 441.942, 126.999 440.497 C 126.449 439.052, 126 434.764, 126 430.969 C 126 426.617, 126.610 422.788, 127.652 420.604 L 129.304 417.139 128.170 411.491 C 127.268 407, 127.323 404.681, 128.437 400.171 C 131.766 386.707, 132.337 382.933, 132.551 373 C 132.736 364.394, 133.059 362.443, 134.341 362.186 C 135.202 362.013, 136.120 361.113, 136.381 360.186 C 136.642 359.259, 137.144 356.218, 137.497 353.430 C 137.997 349.476, 137.793 348.073, 136.569 347.057 C 135.706 346.341, 135 345.162, 135 344.437 C 135 342.239, 137.053 341.690, 138.397 343.528 L 139.660 345.256 142.188 340.878 C 143.579 338.470, 145.009 335.283, 145.366 333.795 C 145.800 331.986, 145.347 329.809, 143.998 327.220 C 142.563 324.468, 142.169 322.407, 142.632 320.089 C 142.991 318.295, 143.895 316.594, 144.642 316.307 C 145.389 316.020, 146.002 314.822, 146.004 313.643 C 146.008 311.298, 150.902 300.902, 153.276 298.195 C 154.094 297.263, 155.072 295.488, 155.449 294.250 C 155.826 293.012, 156.779 292, 157.567 292 C 158.577 292, 159 293.206, 159 296.083 C 159 298.806, 159.398 300.034, 160.195 299.768 C 160.853 299.549, 161.754 298.049, 162.197 296.435 C 162.840 294.093, 162.598 293.165, 161.001 291.840 C 159.901 290.927, 159 289.262, 159 288.141 C 159 287.020, 160.125 284.889, 161.500 283.405 C 162.875 281.922, 164 280.125, 164 279.413 C 164 278.701, 164.451 277.839, 165.002 277.499 C 165.553 277.158, 166.470 278.105, 167.039 279.603 C 167.780 281.550, 168.381 282.019, 169.153 281.247 C 169.746 280.654, 170.742 279.321, 171.366 278.286 C 179.467 264.839, 184.782 257.063, 190.699 250 C 193.695 246.425, 198.025 241.295, 200.323 238.601 C 202.620 235.906, 206.682 230.956, 209.349 227.601 C 216.366 218.771, 229.146 206.449, 239.500 198.527 C 244.450 194.741, 250.525 189.983, 253 187.954 C 255.475 185.926, 260.107 182.605, 263.294 180.574 C 266.965 178.235, 269.690 175.621, 270.730 173.441 L 272.370 170 275.832 170 C 278.308 170, 280.510 169.003, 283.565 166.500 C 285.915 164.575, 288.436 162.996, 289.168 162.991 C 289.901 162.986, 292.750 161.875, 295.500 160.522 C 298.250 159.169, 301.009 158.048, 301.631 158.031 C 302.254 158.014, 303.964 156.425, 305.432 154.500 C 306.900 152.575, 307.876 151, 307.600 151 C 307.324 151, 304.531 151.669, 301.393 152.486 C 298.256 153.303, 294.971 154.584, 294.094 155.332 C 291.875 157.225, 284.279 160.651, 279.500 161.914 C 276.682 162.659, 274.788 164.023, 273.090 166.531 C 271.764 168.489, 270.189 169.889, 269.590 169.641 C 268.990 169.394, 267.746 168.888, 266.824 168.518 C 265.650 168.045, 264.603 168.684, 263.324 170.655 C 260.651 174.776, 258.449 176.774, 254.773 178.415 C 252.973 179.218, 248.915 182.266, 245.756 185.188 C 242.597 188.109, 238.997 191.268, 237.756 192.208 C 236.515 193.147, 234.150 194.998, 232.500 196.321 C 230.850 197.644, 228.515 199.034, 227.311 199.411 C 226.108 199.788, 221.608 203.562, 217.311 207.798 C 209.696 215.307, 203.816 220, 202.024 220 C 201.536 220, 200.134 221.463, 198.908 223.250 C 197.683 225.037, 195.864 227.400, 194.866 228.500 C 188.816 235.168, 181.523 243.853, 180.171 246 C 179.305 247.375, 178.014 249.175, 177.303 250 C 176.592 250.825, 174.843 252.963, 173.416 254.750 C 171.990 256.538, 170.187 258, 169.411 258 C 167.754 258, 167.535 256.406, 169.062 255.462 C 169.646 255.101, 170.542 253.837, 171.054 252.653 C 171.565 251.469, 174.262 247.350, 177.047 243.500 C 179.831 239.650, 182.908 235.270, 183.884 233.766 C 185.739 230.908, 196.269 218.914, 201.595 213.593 C 205.375 209.817, 211.182 205.029, 213.746 203.576 C 214.790 202.984, 217.412 200.475, 219.572 198 C 221.732 195.525, 223.950 193.180, 224.500 192.789 C 234.044 186.003, 240.222 180.756, 248.497 172.412 C 253.999 166.863, 259.850 161.474, 261.500 160.436 C 264.706 158.419, 278.943 151.379, 282.862 149.872 C 284.162 149.373, 287.828 147.438, 291.010 145.573 C 294.192 143.708, 301.004 140.499, 306.148 138.442 C 311.291 136.385, 316.175 134.357, 317 133.935 C 319.630 132.591, 331.356 129.141, 335.500 128.492 C 337.700 128.148, 341.075 127.262, 343 126.524 C 350.758 123.549, 370.642 119.444, 384 118.061 C 388.675 117.576, 395.425 116.597, 399 115.884 C 402.575 115.171, 407.637 114.662, 410.250 114.753 C 416.150 114.959, 427.607 114.977, 433.250 114.791 C 435.587 114.714, 442.450 115.672, 448.500 116.919 C 454.714 118.201, 464.069 119.305, 470 119.457 C 475.775 119.605, 482.300 120.064, 484.500 120.476 C 486.700 120.887, 489.494 121.847, 490.709 122.608 C 491.924 123.370, 496.074 124.534, 499.933 125.195 L 506.947 126.398 509.435 124.062 L 511.922 121.725 515.157 123.065 C 516.936 123.802, 519.803 125.644, 521.529 127.160 L 524.667 129.914 530.727 129.746 C 534.060 129.654, 537.398 130.067, 538.144 130.665 C 538.890 131.263, 545.910 134.557, 553.744 137.985 C 566.646 143.632, 572.114 146.555, 580.210 152.133 C 581.700 153.160, 583.536 154, 584.290 154 C 585.044 154, 589.790 156.747, 594.835 160.105 C 603.740 166.032, 607 166.937, 607 163.486 C 607 161.159, 601.662 156.311, 593.870 151.561 C 591.466 150.096, 587.475 147.370, 585 145.503 C 580.383 142.019, 569.167 136, 567.293 136 C 566.717 136, 565.709 135.354, 565.053 134.564 C 564.398 133.775, 562.430 132.816, 560.681 132.434 C 558.931 132.052, 556.427 130.898, 555.115 129.870 C 553.803 128.841, 552.171 128, 551.488 128 C 550.804 128, 549.691 127.333, 549.014 126.517 C 548.337 125.702, 546.370 124.610, 544.642 124.091 C 542.914 123.573, 538.125 121.721, 534 119.977 C 525.970 116.581, 517.662 113.525, 512 111.886 C 510.075 111.328, 507.150 110.272, 505.500 109.539 C 503.850 108.805, 500.112 107.888, 497.194 107.501 C 493.780 107.048, 491.196 106.053, 489.944 104.710 C 488.875 103.562, 488 102.244, 488 101.780 C 488 99.953, 491.521 99.758, 496.388 101.315 C 501.296 102.886, 508.225 104.700, 520 107.496 C 526.276 108.987, 531.433 110.758, 545.270 116.175 C 550.644 118.279, 555.545 120, 556.161 120 C 557.975 120, 580.200 130.555, 586 134.170 C 587.925 135.370, 591.525 137.431, 594 138.749 C 598.103 140.935, 602.182 143.444, 609 147.974 C 610.375 148.888, 612.175 149.910, 613 150.246 C 614.568 150.885, 627.047 160.064, 635.313 166.660 C 637.961 168.772, 642.911 173.161, 646.313 176.413 C 649.716 179.665, 655.200 184.568, 658.500 187.309 C 669.152 196.156, 692.996 221.271, 698.556 229.500 C 701.529 233.900, 705.432 239.573, 707.230 242.106 C 710.679 246.964, 714.844 253.472, 719 260.496 C 720.375 262.820, 722.122 265.464, 722.883 266.373 C 723.939 267.635, 724.588 267.757, 725.633 266.890 C 726.385 266.266, 727 264.942, 727 263.949 C 727 262.956, 726.414 261.548, 725.698 260.821 C 724.982 260.095, 723.367 257.362, 722.108 254.748 C 720.849 252.134, 717.782 246.959, 715.292 243.248 C 712.802 239.537, 710.343 235.600, 709.828 234.500 C 707.237 228.969, 705.163 225.723, 701.713 221.803 C 699.630 219.436, 695.204 213.728, 691.877 209.118 C 686.516 201.690, 682.828 197.113, 672.335 184.864 C 667.102 178.755, 659.541 171.554, 650.488 164.057 C 645.545 159.964, 640.375 155.518, 639 154.178 C 637.625 152.838, 635.375 151.026, 634 150.153 C 631.368 148.480, 630.197 147.531, 623.118 141.336 C 618.611 137.390, 613.804 134.339, 596.500 124.436 C 591 121.289, 583.350 116.598, 579.500 114.013 C 571.711 108.783, 561.128 103.005, 559.331 103.002 C 558.688 103.001, 556.888 102.330, 555.331 101.511 C 548.930 98.146, 531.227 91.107, 527.500 90.446 C 525.300 90.056, 522.780 89.366, 521.900 88.914 C 518.972 87.407, 505.584 84.200, 499.318 83.505 C 495.917 83.128, 492.375 82.263, 491.445 81.583 C 490.307 80.751, 489.975 79.655, 490.429 78.225 C 490.799 77.057, 491.880 75.855, 492.831 75.554 C 494.615 74.987, 511.305 78.481, 521 81.450 C 524.025 82.376, 528.425 84.004, 530.777 85.067 C 533.129 86.130, 535.662 87, 536.406 87 C 537.651 87, 543.316 89.347, 553.566 94.111 C 555.802 95.150, 558.069 96, 558.604 96 C 559.139 96, 561.342 96.900, 563.500 98 C 565.658 99.100, 568.173 100, 569.089 100 C 570.005 100, 571.305 100.663, 571.978 101.474 C 573.631 103.466, 579.837 104.563, 581.282 103.118 C 582.125 102.275, 582.042 101.614, 580.957 100.530 C 579.070 98.646, 554.451 86, 552.670 86 C 551.922 86, 550.532 85.140, 549.581 84.090 C 548.631 83.039, 546.648 81.899, 545.176 81.555 C 543.704 81.212, 541.150 80.316, 539.500 79.565 C 535.048 77.537, 511.050 70.103, 501.918 67.921 C 497.542 66.876, 492.958 65.390, 491.731 64.619 C 490.504 63.848, 487.250 62.913, 484.500 62.542 C 481.750 62.170, 476.125 61.016, 472 59.976 C 459.513 56.830, 442.556 54.801, 421.577 53.944 C 410.619 53.496, 400.606 52.867, 399.327 52.546 C 398.047 52.225, 397.032 51.633, 397.072 51.231 C 397.112 50.829, 398.707 49.201, 400.616 47.613 L 404.087 44.727 410.294 46.311 C 413.707 47.183, 423.025 48.189, 431 48.547 C 440.011 48.951, 447.014 49.771, 449.500 50.712 C 451.700 51.545, 456.875 52.643, 461 53.152 C 465.125 53.661, 471.650 54.717, 475.500 55.500 C 479.350 56.282, 487.675 57.224, 494 57.592 C 502.339 58.078, 506.187 58.731, 508 59.968 C 509.375 60.907, 511.175 61.990, 512 62.376 C 512.825 62.763, 514.625 63.729, 516 64.524 C 517.375 65.320, 520.075 65.980, 522 65.992 C 523.925 66.004, 526.850 66.907, 528.500 68 C 531.928 70.270, 536 70.637, 536 68.674 C 536 67.945, 534.932 66.345, 533.626 65.118 C 530.837 62.499, 517.641 57.084, 513.924 57.034 C 512.508 57.015, 508.180 55.893, 504.308 54.540 C 500.435 53.187, 493.269 51.359, 488.383 50.478 C 483.498 49.597, 474.550 47.995, 468.500 46.919 C 457.704 44.998, 417.638 41.796, 409.591 42.211 C 407.341 42.327, 400.930 42.567, 395.344 42.745 M 371.750 46.662 C 372.438 46.940, 373.563 46.940, 374.250 46.662 C 374.938 46.385, 374.375 46.158, 373 46.158 C 371.625 46.158, 371.063 46.385, 371.750 46.662 M 375.500 66.178 C 374.400 66.792, 373.288 67.478, 373.029 67.702 C 372.242 68.382, 375.368 69.968, 377.527 69.985 C 378.643 69.993, 380.632 69.245, 381.949 68.323 L 384.343 66.646 382.421 65.894 C 379.683 64.820, 377.791 64.898, 375.500 66.178 M 453.720 65.613 C 453.324 66.009, 453 66.898, 453 67.588 C 453 68.775, 454.570 68.998, 471.500 70.213 C 474.516 70.429, 475.500 70.131, 475.500 69 C 475.500 67.841, 473.681 67.365, 467.500 66.907 C 463.100 66.581, 458.361 65.994, 456.970 65.604 C 455.578 65.213, 454.116 65.218, 453.720 65.613 M 359.459 68.067 C 359.096 68.653, 359.036 69.369, 359.325 69.658 C 360.110 70.443, 364 69.008, 364 67.933 C 364 66.645, 360.269 66.755, 359.459 68.067 M 353.510 72.016 C 353.856 72.575, 354.557 72.774, 355.069 72.457 C 356.456 71.600, 356.198 71, 354.441 71 C 353.584 71, 353.165 71.457, 353.510 72.016 M 551.534 75.945 C 550.569 77.506, 551.839 79, 554.132 79 C 555.507 79, 556.040 78.448, 555.812 77.261 C 555.428 75.269, 552.507 74.370, 551.534 75.945 M 476.694 79.639 C 475.361 80.972, 477.261 82, 481.059 82 C 483.895 82, 485 81.580, 485 80.500 C 485 79.428, 483.907 79, 481.167 79 C 479.058 79, 477.046 79.288, 476.694 79.639 M 568.629 83.263 L 566.759 84.650 571.076 87.825 C 573.451 89.571, 576.173 91, 577.126 91 C 578.078 91, 579.499 91.642, 580.283 92.426 C 581.067 93.210, 583.237 94.551, 585.104 95.406 C 586.972 96.260, 589.175 97.419, 590 97.980 C 590.825 98.542, 592.625 99.453, 594 100.004 C 598.188 101.685, 608.261 107.466, 613.874 111.411 C 616.944 113.569, 619.828 114.896, 620.711 114.557 C 621.863 114.115, 621.286 113.253, 618.369 111.053 C 616.241 109.448, 613.375 107.223, 612 106.109 C 610.625 104.996, 608.150 103.002, 606.500 101.678 C 604.850 100.354, 599.450 96.931, 594.500 94.070 C 589.550 91.209, 583.427 87.549, 580.894 85.938 C 578.360 84.326, 574.985 82.753, 573.394 82.442 C 571.660 82.103, 569.750 82.432, 568.629 83.263 M 310.347 87.497 L 308.500 88.857 310.328 89.565 C 311.445 89.998, 312.738 89.690, 313.655 88.773 L 315.155 87.273 313.675 86.705 C 312.861 86.393, 311.363 86.749, 310.347 87.497 M 232.750 89.984 C 231.238 91.573, 230 93.351, 230 93.936 C 230 94.521, 231.012 94.975, 232.250 94.945 C 233.499 94.914, 235.531 93.584, 236.816 91.956 C 239.093 89.074, 239.038 86.953, 236.691 87.048 C 236.036 87.075, 234.262 88.396, 232.750 89.984 M 293.964 93.427 C 293.159 94.211, 290.925 95.252, 289 95.740 C 287.075 96.228, 285.599 97.049, 285.719 97.564 C 285.839 98.079, 287.065 98.641, 288.442 98.814 C 290.027 99.012, 292.219 98.112, 294.409 96.365 C 296.314 94.845, 297.649 93.242, 297.377 92.801 C 296.652 91.627, 295.616 91.817, 293.964 93.427 M 377.713 96.621 C 376.129 98.204, 377.177 99.110, 380.250 98.813 C 382.038 98.641, 383.401 98.050, 383.281 97.500 C 383.017 96.295, 378.717 95.616, 377.713 96.621 M 366.500 99.082 C 364.850 99.457, 360.800 99.833, 357.500 99.917 C 354.200 100.002, 350.375 100.714, 349 101.500 C 347.625 102.286, 345.375 102.961, 344 103 C 342.625 103.039, 340.457 103.650, 339.182 104.357 L 336.865 105.643 338.442 106.952 C 340.619 108.759, 346.611 107.802, 353.485 104.550 C 358.069 102.382, 359.918 102.015, 363.539 102.558 C 365.978 102.924, 369.105 102.939, 370.487 102.593 C 373.365 101.870, 373.856 99.437, 371.250 98.817 C 370.288 98.588, 368.150 98.707, 366.500 99.082 M 272.856 99.713 C 270.852 99.930, 268.420 100.984, 267.451 102.054 C 266.483 103.124, 265.155 104, 264.500 104 C 263.845 104, 262.542 104.848, 261.604 105.885 C 260.666 106.922, 258.652 108.020, 257.129 108.324 C 254.485 108.853, 246.326 113.634, 241 117.775 C 239.625 118.844, 237.488 120.038, 236.250 120.427 C 235.012 120.816, 234 121.566, 234 122.092 C 234 122.619, 232.869 123.480, 231.486 124.005 C 228.881 124.996, 224.162 128.158, 220.569 131.321 C 215.926 135.409, 208.017 143.549, 208.009 144.250 C 207.991 145.724, 210.722 144.964, 212.500 143 C 213.495 141.900, 214.708 141, 215.195 141 C 216.462 141, 223.794 135.776, 232 129.026 C 236.954 124.951, 242.458 121.307, 244.765 120.575 C 245.849 120.230, 247.540 119.060, 248.523 117.974 C 249.506 116.889, 250.855 116, 251.520 116 C 252.186 116, 253.843 115.125, 255.204 114.055 C 256.564 112.985, 260.562 111.132, 264.088 109.938 C 271.576 107.403, 280.244 102.232, 279.707 100.620 C 279.279 99.334, 277.959 99.159, 272.856 99.713 M 320.500 108.431 C 317.750 109.151, 313.827 110.473, 311.782 111.369 C 309.737 112.266, 306.812 113.014, 305.282 113.032 C 303.752 113.049, 301.626 113.724, 300.559 114.532 C 299.491 115.339, 297.864 116, 296.944 116 C 296.023 116, 294.126 116.900, 292.727 118 C 291.329 119.100, 289.239 120, 288.082 120 C 286.926 120, 285.210 120.900, 284.268 122 C 283.326 123.100, 281.618 124, 280.472 124 C 279.326 124, 276.864 125.125, 275 126.500 C 273.136 127.875, 270.976 129, 270.200 129 C 268.508 129, 261 134.781, 261 136.084 C 261 136.588, 262.514 137, 264.365 137 C 266.234 137, 268.879 136.096, 270.314 134.968 C 274.477 131.693, 288.681 124.925, 292.752 124.277 C 296.367 123.701, 300.376 122.057, 308.198 117.944 C 310.232 116.875, 313.619 116, 315.726 116 C 317.832 116, 320.668 115.213, 322.027 114.250 C 323.387 113.287, 326.300 112.050, 328.500 111.500 C 330.944 110.889, 332.500 109.917, 332.500 109 C 332.500 106.998, 326.983 106.736, 320.500 108.431 M 202 110 C 202 110.550, 202.450 111, 203 111 C 203.550 111, 204 110.550, 204 110 C 204 109.450, 203.550 109, 203 109 C 202.450 109, 202 109.450, 202 110 M 594.036 109.750 C 594.099 111.056, 598.390 115.539, 601.357 117.397 C 603.109 118.494, 604.572 118.828, 605.140 118.260 C 606.831 116.569, 604.808 113.936, 599.908 111.454 C 597.245 110.104, 594.827 109, 594.533 109 C 594.240 109, 594.016 109.338, 594.036 109.750 M 190.010 115.731 C 189.190 116.059, 187.246 117.600, 185.690 119.156 C 184.134 120.713, 180.304 123.674, 177.180 125.738 C 174.056 127.802, 168.877 132.055, 165.671 135.189 C 162.465 138.322, 159.532 141.024, 159.154 141.193 C 158.775 141.362, 156.736 143.632, 154.622 146.239 C 150.605 151.190, 150.369 154, 153.969 154 C 156.173 154, 163.401 147.344, 164.450 144.349 C 164.805 143.332, 168.514 139.800, 172.691 136.500 C 176.867 133.200, 181.475 129.323, 182.931 127.884 C 184.386 126.446, 186.587 124.949, 187.821 124.557 C 190.983 123.553, 195.168 119.113, 194.793 117.162 C 194.452 115.392, 192.395 114.777, 190.010 115.731 M 249.500 141.061 C 247.850 142.114, 246.500 143.537, 246.500 144.224 C 246.500 144.911, 247.210 145.609, 248.079 145.777 C 248.947 145.944, 250.860 145.624, 252.329 145.065 C 254.250 144.335, 255 143.341, 255 141.525 C 255 140.133, 254.439 139.033, 253.750 139.073 C 253.063 139.113, 251.150 140.008, 249.500 141.061 M 321.008 145.974 C 319.902 146.673, 319.808 147.208, 320.643 148.043 C 322.272 149.672, 326.422 148.802, 326.813 146.750 C 327.054 145.487, 326.500 145.004, 324.823 145.015 C 323.545 145.024, 321.829 145.455, 321.008 145.974 M 202 148.622 C 202 149.951, 202.271 150.020, 203.500 149 C 204.325 148.315, 205 147.585, 205 147.378 C 205 147.170, 204.325 147, 203.500 147 C 202.675 147, 202 147.730, 202 148.622 M 613 167.695 C 613 168.078, 614.209 169.653, 615.687 171.195 C 617.165 172.738, 619.190 174, 620.187 174 C 621.184 174, 622 173.740, 622 173.423 C 622 173.106, 620.685 171.531, 619.077 169.923 C 617.469 168.315, 615.444 167, 614.577 167 C 613.710 167, 613 167.313, 613 167.695 M 632 184.433 C 632 186.114, 635.466 187.448, 637.143 186.412 C 637.953 185.911, 637.748 185.289, 636.460 184.347 C 635.447 183.606, 634.029 183, 633.309 183 C 632.589 183, 632 183.645, 632 184.433 M 647 197.878 C 647 199.138, 649.935 201.398, 650.648 200.686 C 651.672 199.662, 650.143 197, 648.531 197 C 647.689 197, 647 197.395, 647 197.878 M 177 218.500 C 177 219.325, 177.450 220, 178 220 C 178.550 220, 179 219.325, 179 218.500 C 179 217.675, 178.550 217, 178 217 C 177.450 217, 177 217.675, 177 218.500 M 172.509 223.250 C 172.112 224.213, 171.150 225, 170.372 225 C 169.594 225, 168.445 226.125, 167.818 227.500 C 167.192 228.875, 166.307 230, 165.852 230 C 164.541 230, 155.683 243.960, 156.469 244.787 C 156.619 244.946, 157.916 244.540, 159.352 243.886 C 160.787 243.232, 162.226 241.864, 162.549 240.847 C 162.871 239.830, 164.005 238.533, 165.068 237.964 C 166.130 237.395, 167 236.377, 167 235.701 C 167 235.026, 168.604 232.091, 170.565 229.180 C 172.525 226.269, 173.927 223.350, 173.681 222.694 C 173.397 221.937, 172.968 222.140, 172.509 223.250 M 149.244 253.892 C 148.010 256.582, 147 259.562, 147 260.514 L 147 262.245 148.500 261 C 149.325 260.315, 150 259.156, 150 258.423 C 150 257.690, 151.125 255.966, 152.500 254.591 C 153.875 253.216, 155 251.395, 155 250.545 C 155 249.695, 154.210 249, 153.244 249 C 152.115 249, 150.688 250.745, 149.244 253.892 M 727.203 273 C 726.220 275.613, 726.667 278.040, 728.336 279.157 C 729.890 280.197, 732 278.957, 732 277.004 C 732 276.024, 731.132 274.159, 730.072 272.861 L 728.143 270.500 727.203 273 M 107.874 285.751 C 106.597 287.813, 105.210 290.625, 104.792 292 C 104.374 293.375, 104.287 295.311, 104.600 296.303 C 105.050 297.731, 105.462 297.862, 106.584 296.930 C 107.363 296.284, 108 294.304, 108 292.531 C 108 290.741, 108.890 288.280, 110 287 C 111.100 285.732, 112 284.339, 112 283.906 C 112 283.473, 111.594 282.867, 111.098 282.561 C 110.602 282.254, 109.151 283.690, 107.874 285.751 M 163.408 284.378 C 162.591 286.509, 163.277 289.260, 164.750 289.750 C 165.566 290.022, 166 289.117, 166 287.142 C 166 283.805, 164.317 282.010, 163.408 284.378 M 156.015 305.250 C 156.027 307.716, 156.264 308.138, 157 307 C 158.270 305.035, 158.270 302, 157 302 C 156.450 302, 156.007 303.462, 156.015 305.250 M 98.250 311.141 C 96.741 312.661, 96.591 316, 98.031 316 C 99.325 316, 100.275 313.630, 99.835 311.500 C 99.566 310.201, 99.254 310.131, 98.250 311.141 M 150.446 312.360 C 150.102 313.731, 148.961 315.631, 147.910 316.581 C 145.836 318.458, 145.455 321.622, 147.015 324 L 148 325.500 148.985 324 C 149.526 323.175, 149.976 321.955, 149.985 321.289 C 149.993 320.623, 150.919 319.221, 152.043 318.174 C 153.167 317.127, 154.179 314.990, 154.293 313.425 C 154.438 311.434, 153.985 310.471, 152.786 310.223 C 151.638 309.985, 150.865 310.691, 150.446 312.360 M 141.944 370.105 C 140.546 372.718, 141.601 379, 143.438 379 C 144.180 379, 145.059 378.288, 145.393 377.418 C 145.727 376.548, 146 374.073, 146 371.918 C 146 369.144, 145.572 368, 144.535 368 C 143.730 368, 142.563 368.947, 141.944 370.105 M 744.736 372.250 C 744.500 372.938, 744.731 374.738, 745.251 376.250 C 745.837 377.955, 746.918 379, 748.098 379 C 749.144 379, 750 378.528, 750 377.950 C 750 376.245, 747.025 371, 746.058 371 C 745.568 371, 744.973 371.563, 744.736 372.250 M 139.605 383.829 C 139.324 384.285, 138.603 387.726, 138.004 391.474 C 137.405 395.223, 136.450 399.159, 135.881 400.222 C 135.312 401.285, 134.407 411.157, 133.870 422.161 C 133.159 436.720, 133.205 443.712, 134.038 447.834 C 134.668 450.950, 135.859 454.561, 136.685 455.857 C 139.368 460.069, 140.117 456.975, 138.950 446.501 C 137.699 435.282, 138.402 416.931, 140.550 404.724 C 142.186 395.427, 142.477 383, 141.059 383 C 140.541 383, 139.887 383.373, 139.605 383.829 M 747.465 387.283 C 747.150 388.538, 747.302 391.388, 747.802 393.616 C 748.303 395.844, 748.557 408.429, 748.367 421.583 C 748.177 434.737, 747.805 448.987, 747.542 453.250 C 747.278 457.512, 747.322 461.675, 747.638 462.500 C 748.548 464.870, 750.900 464.249, 751.601 461.453 C 751.953 460.052, 751.961 457.157, 751.619 455.020 C 751.278 452.884, 751.489 449.867, 752.090 448.318 C 752.690 446.768, 753.343 438.361, 753.540 429.635 C 753.823 417.105, 753.567 412.795, 752.324 409.135 C 751.173 405.745, 750.914 402.559, 751.360 397.276 C 751.963 390.134, 750.995 385, 749.044 385 C 748.491 385, 747.780 386.027, 747.465 387.283 M 30 388.500 C 30 389.875, 30.450 391, 31 391 C 31.550 391, 32 389.875, 32 388.500 C 32 387.125, 31.550 386, 31 386 C 30.450 386, 30 387.125, 30 388.500 M 28.454 423.484 C 28.518 426.749, 30 427.940, 30 424.726 C 30 423.291, 29.642 421.897, 29.204 421.626 C 28.767 421.356, 28.429 422.192, 28.454 423.484 M 29 438 C 28.240 439.421, 28.240 440.579, 29 442 C 29.589 443.100, 30.474 444, 30.968 444 C 31.461 444, 32.151 443.100, 32.500 442 C 33.232 439.694, 32.289 436, 30.968 436 C 30.474 436, 29.589 436.900, 29 438 M 762.086 442 C 761.983 442.825, 761.682 446.087, 761.417 449.250 C 761.132 452.643, 761.334 455, 761.908 455 C 762.444 455, 763.082 454.663, 763.326 454.250 C 763.570 453.837, 763.433 450.575, 763.022 447 C 762.610 443.425, 762.189 441.175, 762.086 442 M 759.750 465.087 C 758.788 466.778, 758 468.752, 758 469.474 C 758 470.196, 758.563 470.993, 759.250 471.246 C 761.881 472.213, 763 470.772, 763 466.417 C 763 463.988, 762.663 462.003, 762.250 462.006 C 761.837 462.010, 760.712 463.396, 759.750 465.087 M 77.563 476.250 C 78.726 484.665, 80.252 491.546, 81.500 494 C 82.199 495.375, 83.301 499.066, 83.947 502.202 C 84.818 506.430, 85.643 508.069, 87.136 508.543 C 88.244 508.895, 89.375 508.958, 89.649 508.684 C 89.923 508.410, 89.439 506.816, 88.574 505.143 C 87.708 503.469, 86.997 501.289, 86.994 500.300 C 86.990 499.310, 86.280 497.150, 85.414 495.500 C 84.549 493.850, 83.449 488.735, 82.970 484.133 C 82.399 478.646, 81.512 475.119, 80.394 473.883 C 79.457 472.848, 78.304 472, 77.833 472 C 77.362 472, 77.241 473.913, 77.563 476.250 M 757.620 477.250 C 757.446 477.938, 756.756 480.075, 756.087 482 C 754.782 485.756, 754.056 490.164, 753.714 496.408 C 753.588 498.706, 753.989 500.483, 754.688 500.721 C 755.341 500.943, 756.821 500.179, 757.978 499.022 L 760.082 496.918 759.803 486.459 C 759.649 480.707, 759.167 476, 758.731 476 C 758.294 476, 757.795 476.563, 757.620 477.250 M 744.531 492.293 C 744.103 493.279, 744.034 494.367, 744.376 494.710 C 745.392 495.725, 746.211 494.299, 745.743 492.328 L 745.310 490.500 744.531 492.293 M 130.390 495.427 C 129.586 497.522, 130.326 501.286, 131.627 501.714 C 132.247 501.918, 133.034 501.355, 133.376 500.463 C 134.150 498.447, 133.107 494, 131.860 494 C 131.353 494, 130.691 494.642, 130.390 495.427 M 751.684 506.537 C 750.756 508.482, 749.334 513.878, 748.523 518.529 C 747.712 523.180, 746.143 528.759, 745.037 530.928 C 743.930 533.097, 742.907 536.345, 742.763 538.147 C 742.560 540.672, 742.931 541.511, 744.380 541.810 C 745.414 542.023, 746.645 541.590, 747.115 540.848 C 747.585 540.107, 747.976 537.643, 747.985 535.372 C 747.993 533.102, 748.618 530.732, 749.373 530.105 C 750.129 529.478, 751.043 526.731, 751.406 524.001 C 751.865 520.533, 752.658 518.718, 754.032 517.983 C 755.615 517.136, 756 515.877, 756 511.547 C 756 506.014, 755.322 503, 754.078 503 C 753.689 503, 752.612 504.591, 751.684 506.537 M 46.667 513.667 C 45.713 514.620, 45.872 519.249, 46.914 520.896 C 47.400 521.663, 48.456 522.039, 49.260 521.730 C 50.065 521.422, 50.943 520.327, 51.212 519.297 C 51.481 518.268, 51.333 516.430, 50.883 515.213 C 50.089 513.066, 48.024 512.309, 46.667 513.667 M 60 543.040 C 60 544.859, 64.001 552, 65.020 552 C 65.559 552, 66 550.189, 66 547.975 L 66 543.950 63.435 542.975 C 62.024 542.439, 60.674 542, 60.435 542 C 60.196 542, 60 542.468, 60 543.040 M 155 555.294 C 155 557.198, 155.631 559.279, 156.402 559.919 C 157.173 560.558, 158.093 562.234, 158.446 563.641 C 158.799 565.049, 159.874 567.393, 160.834 568.850 C 163.726 573.239, 164.930 575.309, 167.027 579.500 C 168.128 581.700, 170.124 585.300, 171.463 587.500 C 172.802 589.700, 174.328 592.430, 174.854 593.566 C 175.897 595.819, 179.777 601.697, 181.763 604.034 C 182.891 605.361, 187.200 611, 194 620.048 C 195.375 621.878, 197.287 624.066, 198.250 624.910 C 199.213 625.754, 200 626.950, 200 627.569 C 200 628.643, 207.786 636.573, 218.498 646.410 C 221.247 648.935, 224.059 651, 224.748 651 C 227.549 651, 225.616 647.621, 218.603 640.262 C 214.535 635.993, 209.507 630.250, 207.431 627.500 C 205.354 624.750, 203.136 622.050, 202.501 621.500 C 200.221 619.524, 184 599.117, 184 598.223 C 184 597.721, 183.100 596.495, 182 595.500 C 180.900 594.505, 180 593.080, 180 592.335 C 180 591.590, 179.100 590.210, 178 589.268 C 176.900 588.326, 176 586.892, 176 586.082 C 176 585.271, 174.976 583.008, 173.725 581.054 C 169.615 574.633, 168.975 573.533, 167.538 570.420 C 166.756 568.727, 165.415 566.759, 164.558 566.048 C 163.701 565.337, 163 564.167, 163 563.449 C 163 562.731, 162.213 561.368, 161.250 560.421 C 160.287 559.473, 159.019 557.331, 158.431 555.659 C 157.843 553.988, 156.831 552.444, 156.181 552.227 C 155.425 551.975, 155 553.078, 155 555.294 M 736.382 558.191 C 733.962 562.107, 731.008 568.731, 731.004 570.250 C 731.002 571.212, 731.563 572, 732.250 572 C 734.095 572, 738.646 565.886, 739.419 562.370 C 739.883 560.256, 739.642 558.948, 738.633 558.111 C 737.491 557.162, 737.007 557.179, 736.382 558.191 M 67.658 558.675 C 66.464 559.870, 66.973 565.517, 68.468 567.651 C 69.275 568.803, 70.233 571.716, 70.595 574.123 C 70.958 576.530, 72.097 579.903, 73.127 581.618 C 74.157 583.333, 75 585.851, 75 587.213 C 75 588.575, 75.900 590.505, 77 591.500 C 78.100 592.495, 79 593.881, 79 594.578 C 79 595.276, 80.125 597.184, 81.500 598.818 C 82.875 600.452, 84 602.437, 84 603.229 C 84 604.709, 91.232 615.713, 93.379 617.500 C 94.040 618.050, 96.907 621.425, 99.751 625 C 102.595 628.575, 105.840 632.447, 106.961 633.605 C 108.082 634.763, 109 635.978, 109 636.305 C 109 636.632, 110.463 638.987, 112.250 641.538 C 114.037 644.089, 115.950 646.941, 116.500 647.875 C 117.050 648.809, 118.066 650.232, 118.757 651.037 C 119.449 651.842, 122.500 655.592, 125.538 659.370 C 128.576 663.149, 135.660 670.885, 141.281 676.563 C 157.372 692.817, 167 702.967, 167 703.678 C 167 704.530, 168.429 706.114, 176.507 714.221 C 182.776 720.511, 190.714 726.636, 196.850 729.917 C 198.307 730.697, 199.950 731.858, 200.500 732.498 C 201.535 733.702, 211.235 740.179, 216.500 743.182 C 218.150 744.123, 220.921 745.581, 222.658 746.422 C 224.395 747.262, 225.970 748.299, 226.158 748.725 C 226.645 749.830, 231.429 753.040, 239.348 757.577 C 243.115 759.735, 247.840 762.491, 249.848 763.702 C 251.857 764.914, 254.175 766.205, 255 766.573 C 255.825 766.940, 258.300 768.040, 260.500 769.017 C 265.580 771.272, 269.507 771.938, 271.185 770.830 C 272.220 770.147, 272.087 769.647, 270.559 768.481 C 269.491 767.666, 267.830 767, 266.868 767 C 265.905 767, 264.854 766.572, 264.530 766.049 C 264.207 765.526, 259.694 763.018, 254.502 760.475 C 249.310 757.933, 243.453 754.761, 241.486 753.426 C 239.520 752.092, 237.551 751, 237.111 751 C 236.670 751, 235.495 750.100, 234.500 749 C 233.505 747.900, 232.197 746.992, 231.595 746.982 C 230.140 746.958, 223.332 742.281, 218.987 738.321 C 214.852 734.552, 208.289 730, 206.989 730 C 206.482 730, 201.450 726.288, 195.808 721.750 C 190.165 717.212, 174.209 702.250, 160.348 688.500 C 139.099 667.419, 129.386 656.700, 119.572 643.500 C 118.754 642.400, 117.041 640.150, 115.764 638.500 C 114.488 636.850, 112.107 633.499, 110.472 631.054 C 108.837 628.609, 106.432 625.459, 105.126 624.054 C 103.820 622.649, 101.570 619.741, 100.126 617.590 C 98.682 615.440, 96.718 612.515, 95.762 611.090 C 94.806 609.666, 93.260 607.038, 92.327 605.250 C 91.393 603.462, 90.300 602, 89.897 602 C 88.791 602, 75.001 573.766, 74.993 571.485 C 74.990 570.393, 74.093 568.150, 73 566.500 C 71.907 564.850, 71.010 562.768, 71.007 561.872 C 70.999 559.980, 68.623 557.711, 67.658 558.675 M 706.436 561.398 C 705.625 564.628, 706.263 568.608, 707.500 568.043 C 708.762 567.467, 711.062 560.910, 710.386 559.816 C 710.109 559.367, 709.242 559, 708.460 559 C 707.678 559, 706.767 560.079, 706.436 561.398 M 88 563.004 C 88 564.106, 88.900 566.686, 90 568.739 C 91.100 570.791, 92 573.014, 92 573.678 C 92 574.343, 92.868 575.495, 93.929 576.238 C 94.991 576.981, 96.165 578.811, 96.540 580.304 C 97.317 583.398, 99 584.920, 99 582.527 C 99 579.712, 95.001 568.962, 92.450 564.921 C 91.089 562.765, 89.531 561, 88.987 561 C 88.444 561, 88 561.902, 88 563.004 M 724.691 584.099 C 722.775 586.188, 721.981 588.006, 722.191 589.822 C 722.679 594.023, 725.238 593.539, 727.753 588.771 C 728.992 586.422, 730.004 583.712, 730.003 582.750 C 730.001 581.788, 729.438 581.009, 728.750 581.019 C 728.063 581.029, 726.236 582.416, 724.691 584.099 M 717.462 597.447 C 715.858 599.051, 714.989 600.894, 715.186 602.271 C 715.433 603.985, 716.078 604.436, 717.982 604.221 C 719.344 604.068, 720.845 603.555, 721.319 603.081 C 722.669 601.731, 722.638 595.762, 721.278 595.283 C 720.607 595.046, 718.889 596.020, 717.462 597.447 M 126 611.941 C 126 614.128, 127.562 615.518, 128.434 614.107 C 129.165 612.924, 128.067 610, 126.893 610 C 126.402 610, 126 610.873, 126 611.941 M 708.359 614.250 C 705.261 617.753, 700.090 626.189, 697.987 631.170 C 697.367 632.638, 696.313 634.049, 695.645 634.306 C 694.977 634.562, 693.105 636.736, 691.485 639.136 C 688.304 643.851, 677.360 657.869, 675.587 659.500 C 674.989 660.050, 673.295 662.075, 671.822 664 C 670.350 665.925, 667.313 669.525, 665.074 672 C 660.350 677.222, 659.414 680.727, 663.750 676.958 C 670.105 671.435, 682.131 658.753, 684.354 655.231 C 685.673 653.142, 688.988 648.973, 691.720 645.966 C 694.453 642.960, 697.411 639.150, 698.295 637.500 C 699.179 635.850, 700.487 633.389, 701.201 632.031 C 701.915 630.673, 704.194 627.748, 706.265 625.531 C 708.335 623.314, 710.297 620.487, 710.623 619.250 C 710.950 618.013, 711.618 617, 712.108 617 C 712.599 617, 713 615.875, 713 614.500 C 713 613.091, 712.422 612, 711.674 612 C 710.945 612, 709.453 613.013, 708.359 614.250 M 241.958 665.922 C 243.269 668.371, 247.853 672, 249.635 672 C 250.386 672, 251 672.450, 251 673 C 251 673.550, 251.934 674, 253.076 674 L 255.152 674 252.849 671.219 C 250.106 667.907, 244.449 664, 242.395 664 C 241.259 664, 241.161 664.432, 241.958 665.922 M 206 694.839 C 206 695.301, 207.012 696.198, 208.250 696.833 C 212.253 698.887, 216.940 701.706, 218.489 702.991 C 219.320 703.681, 220 703.916, 220 703.513 C 220 702.348, 215.610 698.036, 214.405 698.017 C 213.803 698.008, 212.495 697.100, 211.500 696 C 209.702 694.013, 206 693.232, 206 694.839 M 580.596 696.214 C 578.999 696.794, 576.074 698.376, 574.096 699.729 C 572.118 701.082, 565.775 704.441, 560 707.192 C 554.225 709.944, 545.257 714.252, 540.071 716.765 C 534.885 719.278, 529.035 721.680, 527.071 722.103 C 521.140 723.379, 512.633 726.601, 512.263 727.711 C 512.072 728.284, 512.670 729.043, 513.592 729.397 C 515.556 730.150, 521.794 729.143, 522.528 727.954 C 522.807 727.503, 525.467 726.630, 528.441 726.012 C 531.414 725.395, 534.386 724.240, 535.046 723.445 C 535.705 722.650, 536.977 721.986, 537.872 721.969 C 538.768 721.952, 541.750 720.831, 544.500 719.478 C 547.250 718.125, 550.232 717.014, 551.128 717.009 C 552.023 717.004, 553.291 716.354, 553.947 715.564 C 554.602 714.775, 556.531 713.823, 558.234 713.449 C 561.701 712.687, 569.548 708.719, 572.032 706.471 C 572.926 705.662, 574.014 705, 574.449 705 C 574.884 705, 577.171 703.763, 579.530 702.250 C 581.937 700.707, 584.018 698.513, 584.271 697.250 C 584.520 696.013, 584.448 695.036, 584.111 695.079 C 583.775 695.122, 582.193 695.633, 580.596 696.214 M 222 705.642 C 222.001 706.114, 224.328 708.525, 227.171 711 C 232.313 715.475, 235.818 717.897, 237.250 717.965 C 237.662 717.984, 238 717.161, 238 716.136 C 238 715.054, 236.216 713.083, 233.750 711.438 C 231.412 709.880, 229.022 708.048, 228.438 707.369 C 227.126 705.841, 222 704.466, 222 705.642 M 260.716 707.116 C 261.330 707.730, 262.701 708.742, 263.762 709.366 C 264.824 709.990, 267.900 711.954, 270.597 713.731 C 275.289 716.823, 280 718.009, 280 716.098 C 280 715.602, 278.650 714.725, 277 714.150 C 275.350 713.575, 274 712.666, 274 712.130 C 274 711.594, 272.461 710.647, 270.580 710.026 C 268.699 709.406, 266.619 708.246, 265.958 707.449 C 265.296 706.652, 263.595 706, 262.178 706 C 260.281 706, 259.895 706.295, 260.716 707.116 M 302 727.875 C 302 728.895, 308.051 730.282, 308.881 729.453 C 309.741 728.593, 306.776 727.033, 304.250 727.015 C 303.012 727.007, 302 727.394, 302 727.875 M 322.882 744.638 C 326.362 746.156, 329.607 745.792, 328.504 744.007 C 328.162 743.453, 325.996 743.037, 323.691 743.082 L 319.500 743.163 322.882 744.638 M 340.034 751.958 C 338.860 752.700, 339.122 753.096, 341.349 753.943 C 342.879 754.524, 344.524 755, 345.006 755 C 345.488 755, 346.191 754.500, 346.569 753.888 C 347.334 752.650, 345.312 751.031, 343 751.031 C 342.175 751.031, 340.840 751.448, 340.034 751.958 M 528.813 757.683 C 529.534 757.972, 530.397 757.936, 530.729 757.604 C 531.061 757.272, 530.471 757.036, 529.417 757.079 C 528.252 757.127, 528.015 757.364, 528.813 757.683 M 397.605 759.830 C 396.705 761.287, 399.622 763.191, 402.195 762.827 C 403.463 762.647, 404.500 761.825, 404.500 761 C 404.500 760.048, 403.346 759.388, 401.344 759.194 C 399.608 759.025, 397.925 759.312, 397.605 759.830 M 283.224 781.176 C 282.365 782.035, 282.344 782.710, 283.146 783.676 C 283.750 784.404, 285.063 785, 286.063 785 C 287.064 785, 288.160 785.450, 288.500 786 C 288.840 786.550, 291.229 786.959, 293.809 786.910 L 298.500 786.820 295.366 785.911 C 293.642 785.412, 291.494 783.877, 290.593 782.501 C 288.845 779.834, 285.218 779.182, 283.224 781.176 M 301.232 790.195 C 301.835 792.004, 307.010 793.065, 309.287 791.847 C 310.886 790.990, 311.002 790.615, 309.885 789.908 C 309.123 789.425, 306.775 789.024, 304.667 789.015 C 302.133 789.005, 300.968 789.405, 301.232 790.195" fill="#c2af98" fill-rule="evenodd"/>
  </g>
  </svg>
  <svg id="jonaminz-zen-logo-wordmark" data-part="wordmark" x="177" y="128" width="918" height="246" viewBox="0 0 765 205" preserveAspectRatio="xMidYMid meet">
<title id="jonaminz-wordmark-title">Jonaminz</title>
  <desc id="jonaminz-wordmark-desc">具高對比髮絲、J 長尾、a 到 m 下方連筆，以及與左上端點對稱的 z 右下勾。</desc>
  <path id="jonaminz-wordmark-ink" data-part="ink"
        d="M 35 12.870 C 35 13.348, 37.123 13.979, 39.718 14.272 C 46.111 14.992, 49.588 18.832, 50.495 26.175 C 50.857 29.104, 50.959 58.950, 50.721 92.500 C 50.254 158.310, 50.056 161.015, 44.648 175.260 C 41.618 183.244, 37.661 189.266, 32.215 194.186 C 28.148 197.861, 18.776 202, 14.522 202 C 13.200 202, 11.840 202.450, 11.500 203 C 10.365 204.836, 22.787 204.093, 29.168 201.943 C 45.149 196.560, 55.269 185.052, 62.096 164.500 L 64.421 157.500 64.960 90 C 65.347 41.595, 65.827 21.931, 66.657 20.489 C 68.738 16.873, 71.773 14.840, 75.922 14.284 C 78.165 13.983, 80 13.346, 80 12.868 C 80 12.391, 69.875 12, 57.500 12 C 45.125 12, 35 12.391, 35 12.870 M 561.923 52.923 C 560.179 54.668, 559 56.903, 559 58.469 C 559 61.305, 562.983 66, 565.389 66 C 570.680 66, 575.795 60.174, 574.433 55.700 C 572.516 49.404, 566.727 48.119, 561.923 52.923 M 124 76.814 C 107.093 81.234, 95.033 93.813, 91.484 110.730 C 89.450 120.426, 91.076 130.544, 96.121 139.585 C 99.479 145.604, 107.977 153.927, 113.793 156.894 C 123.476 161.834, 138.167 163.396, 148.664 160.601 C 161.726 157.123, 171.921 149.011, 177.497 137.658 C 179.431 133.721, 181.489 127.876, 182.072 124.669 C 183.444 117.117, 182.001 107.573, 178.356 100.097 C 174.618 92.427, 166.024 84.059, 158 80.275 C 146.381 74.796, 135.830 73.722, 124 76.814 M 212.184 77.984 C 209.811 79.580, 205.423 81.433, 202.434 82.102 C 196.907 83.339, 195.116 85, 199.309 85 C 200.579 85, 202.401 85.573, 203.359 86.273 L 205.100 87.546 205.028 120.483 C 204.947 156.967, 204.781 158, 198.977 158 C 197.340 158, 196 158.450, 196 159 C 196 159.624, 201.833 160, 211.500 160 C 221.167 160, 227 159.624, 227 159 C 227 158.450, 225.720 158, 224.155 158 C 222.534 158, 220.490 157.095, 219.405 155.897 L 217.500 153.794 217.192 125.904 L 216.884 98.013 220.396 92.757 C 222.327 89.866, 225.841 86.295, 228.204 84.823 C 236.943 79.377, 246.461 78.818, 254.500 83.280 C 257.493 84.941, 259.255 87.011, 261.500 91.500 L 264.500 97.500 264.500 125.042 C 264.500 149.723, 264.316 152.864, 262.727 155.292 C 261.608 157.001, 260.062 158, 258.536 158 C 257.206 158, 255.840 158.450, 255.500 159 C 255.098 159.650, 260.343 160, 270.500 160 C 280.657 160, 285.902 159.650, 285.500 159 C 285.160 158.450, 283.794 158, 282.464 158 C 280.940 158, 279.390 157, 278.273 155.296 C 276.709 152.911, 276.441 149.112, 275.996 123.046 L 275.492 93.500 273.290 89.376 C 270.797 84.707, 266.041 80.343, 261.264 78.341 C 254.786 75.626, 248.441 74.817, 242.396 75.935 C 234.154 77.458, 228.260 80.613, 222.289 86.699 L 217.078 92.010 216.789 83.546 L 216.500 75.082 212.184 77.984 M 325.734 76.088 C 323.663 76.576, 320.188 77.884, 318.011 78.994 C 313.067 81.517, 307 87.489, 307 89.834 C 307 90.940, 308.695 92.425, 311.527 93.801 C 314.016 95.010, 316.210 96, 316.402 96 C 316.593 96, 317.041 94.545, 317.397 92.766 C 318.398 87.758, 322.583 82.254, 327.164 79.916 C 330.515 78.207, 332.650 77.868, 338.120 78.177 C 343.648 78.489, 345.713 79.114, 349.207 81.530 C 352.109 83.538, 354.427 86.355, 356.362 90.224 C 358.637 94.773, 359.355 97.853, 359.862 105.224 L 360.500 114.500 366.250 119.895 L 372 125.290 372 115.194 C 372 104.062, 370.714 96.399, 367.919 90.872 C 364.981 85.064, 357.597 79.265, 350.248 76.995 C 343.403 74.881, 332.561 74.480, 325.734 76.088 M 439.929 76.308 C 433.113 78.234, 426.286 82.623, 422.958 87.217 L 420 91.300 420 83.650 C 420 79.443, 419.838 76, 419.641 76 C 419.443 76, 416.631 77.338, 413.391 78.974 C 410.151 80.610, 405.592 82.235, 403.260 82.586 C 398.872 83.246, 398.311 85, 402.488 85 C 403.791 85, 405.564 85.707, 406.429 86.571 C 407.793 87.936, 408 92.449, 408 120.849 C 408 148.832, 407.775 153.876, 406.443 155.777 C 405.575 157.017, 403.833 158, 402.502 158 C 401.191 158, 399.840 158.450, 399.500 159 C 399.098 159.650, 404.343 160, 414.500 160 C 424.657 160, 429.902 159.650, 429.500 159 C 429.160 158.450, 427.853 158, 426.596 158 C 425.339 158, 423.453 157.053, 422.405 155.897 L 420.500 153.793 420.208 125.073 L 419.915 96.353 423.208 91.456 C 425.090 88.655, 428.607 85.261, 431.422 83.529 C 435.591 80.963, 437.348 80.500, 442.922 80.500 C 447.750 80.500, 450.427 81.045, 452.986 82.548 C 457.953 85.466, 461.816 91.513, 463.062 98.321 C 463.691 101.758, 463.999 114.065, 463.814 128.368 C 463.540 149.540, 463.276 152.935, 461.727 155.297 C 460.590 157.030, 459.065 158, 457.477 158 C 456.115 158, 455 158.450, 455 159 C 455 159.622, 460.686 160, 470.059 160 C 479.844 160, 484.902 159.650, 484.500 159 C 484.160 158.450, 482.853 158, 481.596 158 C 480.339 158, 478.453 157.054, 477.405 155.897 L 475.500 153.793 475.180 126.001 L 474.861 98.209 477.331 93.354 C 480.347 87.429, 483.122 84.749, 489 82.084 C 495.226 79.261, 501.448 79.422, 507.764 82.570 C 512.123 84.742, 513.353 86.018, 515.711 90.820 L 518.500 96.500 518.500 125.144 L 518.500 153.789 516.595 155.894 C 515.547 157.052, 513.661 158, 512.404 158 C 511.147 158, 509.840 158.450, 509.500 159 C 509.098 159.650, 514.343 160, 524.500 160 C 534.657 160, 539.902 159.650, 539.500 159 C 539.160 158.450, 537.853 158, 536.596 158 C 535.339 158, 533.453 157.054, 532.405 155.897 L 530.500 153.794 530 123.647 L 529.500 93.500 527.342 89.500 C 526.154 87.300, 523.904 84.287, 522.342 82.804 C 518.785 79.429, 511.906 76.371, 505.887 75.490 C 499.979 74.624, 490.214 77.057, 484.641 80.783 C 482.363 82.305, 479.043 85.720, 477.262 88.371 L 474.023 93.191 473.056 90.648 C 471.494 86.539, 465.291 80.357, 460.443 78.078 C 454.748 75.401, 445.854 74.634, 439.929 76.308 M 612.637 77.831 C 610.512 79.255, 605.787 81.184, 602.137 82.118 C 595.682 83.768, 595.563 84.191, 601.213 85.426 C 605.713 86.410, 606.175 90.183, 605.820 123.047 C 605.535 149.313, 605.303 152.893, 603.727 155.297 C 602.610 157, 601.060 158, 599.536 158 C 598.206 158, 596.840 158.450, 596.500 159 C 596.098 159.650, 601.343 160, 611.500 160 C 621.657 160, 626.902 159.650, 626.500 159 C 626.160 158.450, 624.794 158, 623.464 158 C 621.940 158, 620.390 157, 619.273 155.297 C 617.706 152.908, 617.464 149.415, 617.191 125.227 L 616.881 97.860 620.017 92.974 C 623.497 87.550, 630.285 82.539, 636.370 80.900 C 638.563 80.310, 642.415 80.126, 644.929 80.492 C 651.451 81.441, 657.092 85.053, 660.011 90.152 L 662.500 94.500 662.804 124.196 L 663.109 153.891 661.054 155.946 C 659.925 157.075, 657.902 158, 656.559 158 C 655.216 158, 653.840 158.450, 653.500 159 C 653.098 159.650, 658.343 160, 668.500 160 C 678.657 160, 683.902 159.650, 683.500 159 C 683.160 158.450, 682.095 158, 681.132 158 C 680.170 158, 678.509 157.362, 677.441 156.582 L 675.500 155.165 674.964 125.332 C 674.349 91.113, 674.111 89.982, 665.941 82.637 C 660.209 77.483, 654.105 75.434, 645.154 75.660 C 640.288 75.782, 637.331 76.547, 632.470 78.940 C 628.612 80.839, 624.416 83.968, 621.752 86.931 L 617.374 91.801 617.133 83.680 C 617 79.213, 616.804 75.487, 616.696 75.399 C 616.588 75.312, 614.762 76.406, 612.637 77.831 M 568.854 78.039 C 565.670 80.417, 558.651 83, 555.374 83 C 554.068 83, 553 83.450, 553 84 C 553 84.550, 554.055 85, 555.345 85 C 556.635 85, 558.458 85.848, 559.396 86.885 C 560.884 88.529, 561.178 92.318, 561.703 116.635 C 562.033 131.961, 561.978 146.670, 561.580 149.322 C 560.756 154.807, 558.152 158, 554.500 158 C 553.125 158, 552 158.450, 552 159 C 552 159.624, 557.853 160, 567.559 160 C 577.677 160, 582.902 159.650, 582.500 159 C 582.160 158.450, 580.853 158, 579.596 158 C 578.339 158, 576.453 157.053, 575.405 155.896 L 573.500 153.793 573.196 114.896 C 573.029 93.503, 572.579 76.014, 572.196 76.032 C 571.813 76.049, 570.309 76.953, 568.854 78.039 M 701.633 77.785 C 701.366 78.216, 700.400 82.260, 699.486 86.771 C 697.723 95.472, 697.965 99.509, 699.949 94.504 C 701.907 89.567, 705.862 85.112, 710.308 82.835 C 713.865 81.013, 716.736 80.615, 729.250 80.208 C 737.362 79.944, 744 79.979, 744 80.285 C 744 80.591, 741.673 84.590, 738.828 89.171 C 719.465 120.357, 696 158.868, 696 159.463 C 696 159.780, 705.525 159.918, 717.167 159.770 C 733.016 159.568, 738.439 159.186, 738.751 158.250 C 739.071 157.288, 735.819 157, 724.654 157 L 710.141 157 716.702 146.250 C 724.640 133.243, 745.932 99.276, 753.508 87.532 C 756.528 82.850, 759 78.564, 759 78.009 C 759 76.800, 702.378 76.579, 701.633 77.785 M 123.500 80.387 C 120.750 81.690, 116.968 84.273, 115.095 86.128 C 113.222 87.982, 110.114 92.806, 108.188 96.846 C 105.101 103.322, 104.629 105.377, 104.205 114.190 C 103.910 120.319, 104.206 126.375, 104.972 129.844 C 107.781 142.578, 115.310 152.994, 124.804 157.281 C 128.252 158.838, 131.492 159.400, 137 159.396 C 143.111 159.392, 145.429 158.910, 149.520 156.795 C 152.281 155.368, 156.602 151.994, 159.123 149.299 C 164.127 143.950, 167.174 137.069, 169.001 126.997 C 171.341 114.092, 166.948 96.705, 159.085 87.749 C 157.319 85.739, 153.131 82.723, 149.778 81.047 C 144.580 78.450, 142.561 78.001, 136.090 78.010 C 130.196 78.017, 127.383 78.548, 123.500 80.387 M 315.824 111.138 C 308.943 113.538, 301.902 119.506, 299.084 125.327 C 296.371 130.931, 296.285 140.864, 298.900 146.500 C 301.320 151.717, 306.280 156.340, 312.500 159.180 C 316.740 161.116, 319.171 161.462, 328.500 161.460 C 337.662 161.459, 340.467 161.072, 345.285 159.145 C 351.864 156.512, 362.049 147.710, 364.020 142.952 C 364.718 141.267, 365.642 140.251, 366.073 140.694 C 366.504 141.137, 367.820 143.975, 368.998 147 C 374.603 161.397, 387.048 175.870, 398.930 181.807 C 407.274 185.977, 414.527 187.306, 425.933 186.758 C 438.059 186.174, 445.233 183.467, 452.672 176.669 C 457.392 172.355, 461 167.504, 461 165.472 C 461 165.127, 457.962 167.964, 454.250 171.776 C 449.095 177.070, 446.161 179.205, 441.835 180.809 C 438.718 181.964, 433.958 183.202, 431.255 183.561 C 421.017 184.919, 407.622 179.996, 399.047 171.724 C 392.158 165.079, 387.081 157.546, 379.046 142.048 C 373.698 131.734, 370.166 126.233, 366.546 122.581 C 357.210 113.163, 345.959 108.944, 330.540 109.079 C 324.281 109.134, 319.754 109.767, 315.824 111.138 M 327.500 111.935 C 320.201 113.712, 314.405 118.703, 311.463 125.743 C 309.567 130.280, 309.587 140.767, 311.499 145.344 C 313.804 150.861, 319.274 155.707, 325.174 157.459 C 331.630 159.376, 334.327 159.389, 340.581 157.532 C 346.489 155.777, 351.433 152.313, 354.461 147.804 C 357.229 143.685, 360 135.606, 360 131.660 C 360 127.357, 355.625 120.526, 350.698 117.137 C 346.111 113.980, 337.219 110.937, 333.068 111.102 C 331.656 111.159, 329.150 111.533, 327.500 111.935" fill="#171717" fill-rule="evenodd"/>
    <path id="jonaminz-wordmark-z-terminal" data-part="z-terminal"
          d="M753.367 158.712 C753.634 158.281 754.600 154.237 755.514 149.726 C757.277 141.025 757.035 136.988 755.051 141.993 C753.093 146.930 749.138 151.385 744.692 153.662 C741.135 155.484 738.264 155.882 725.750 156.289 C735.500 158.400 745.000 159.500 753.367 158.712 Z"
          fill="#171717"/>
  </svg>
  <svg id="jonaminz-zen-logo-stones" data-part="stones"
       x="1048" y="261" width="155" height="155" viewBox="0 0 512 512"
       preserveAspectRatio="xMidYMid meet"
       aria-labelledby="jonaminz-stacked-stones-title jonaminz-stacked-stones-desc">

    <title id="jonaminz-stacked-stones-title">Jonaminz 平衡疊石</title>
    <desc id="jonaminz-stacked-stones-desc">四顆分離的自然石頭由深色底石向上堆疊，底部有獨立的手繪地面筆觸。</desc>

    <defs>
      <linearGradient id="jonaminz-stacked-stones-base-fill" x1="142" y1="352" x2="376" y2="444" gradientUnits="userSpaceOnUse">
        <stop offset="0" stop-color="#5a5a54"/>
        <stop offset="0.28" stop-color="#3b3c38"/>
        <stop offset="0.72" stop-color="#242725"/>
        <stop offset="1" stop-color="#161a18"/>
      </linearGradient>
      <linearGradient id="jonaminz-stacked-stones-slab-fill" x1="126" y1="295" x2="388" y2="348" gradientUnits="userSpaceOnUse">
        <stop offset="0" stop-color="#d2b08a"/>
        <stop offset="0.45" stop-color="#b48e68"/>
        <stop offset="1" stop-color="#8b6d51"/>
      </linearGradient>
      <linearGradient id="jonaminz-stacked-stones-middle-fill" x1="177" y1="207" x2="348" y2="294" gradientUnits="userSpaceOnUse">
        <stop offset="0" stop-color="#c9c5ba"/>
        <stop offset="0.42" stop-color="#aaa69d"/>
        <stop offset="1" stop-color="#76756f"/>
      </linearGradient>
      <linearGradient id="jonaminz-stacked-stones-top-fill" x1="209" y1="124" x2="312" y2="202" gradientUnits="userSpaceOnUse">
        <stop offset="0" stop-color="#989b78"/>
        <stop offset="0.45" stop-color="#777c5c"/>
        <stop offset="1" stop-color="#535a42"/>
      </linearGradient>

      <radialGradient id="jonaminz-stacked-stones-light" cx="32%" cy="19%" r="76%">
        <stop offset="0" stop-color="#fffaf0" stop-opacity="0.54"/>
        <stop offset="0.38" stop-color="#fffaf0" stop-opacity="0.12"/>
        <stop offset="1" stop-color="#fffaf0" stop-opacity="0"/>
      </radialGradient>

      <filter id="jonaminz-stacked-stones-shadow" x="-18%" y="-24%" width="136%" height="160%">
        <feDropShadow dx="0" dy="8" stdDeviation="7" flood-color="#161713" flood-opacity="0.2"/>
      </filter>
      <filter id="jonaminz-stacked-stones-grain" x="-5%" y="-5%" width="110%" height="110%">
        <feTurbulence type="fractalNoise" baseFrequency="0.085" numOctaves="4" seed="23"/>
        <feColorMatrix type="matrix" values="
          0.55 0 0 0 0.12
          0 0.55 0 0 0.11
          0 0 0.55 0 0.09
          0 0 0 0.16 0"/>
      </filter>

      <path id="jonaminz-stacked-stones-shape-base" d="M74 405 C82 376 113 354 160 345 C204 337 302 338 353 345 C399 351 430 374 439 404 C434 426 408 438 367 445 C313 453 201 453 143 445 C102 439 78 427 74 405 Z"/>
      <path id="jonaminz-stacked-stones-shape-slab" d="M106 316 C114 299 140 294 176 291 C225 287 328 288 379 293 C402 295 416 302 419 313 C416 327 401 334 374 337 C321 342 202 342 147 338 C121 336 107 329 106 316 Z"/>
      <path id="jonaminz-stacked-stones-shape-middle" d="M143 251 C148 225 172 207 207 198 C242 189 295 191 326 201 C356 211 376 231 375 253 C369 279 344 294 307 301 C268 308 214 304 181 294 C157 286 144 271 143 251 Z"/>
      <path id="jonaminz-stacked-stones-shape-top" d="M190 160 C194 139 212 123 238 116 C265 109 293 113 311 126 C326 136 331 151 325 165 C317 184 293 196 262 199 C231 201 204 191 194 176 C190 171 188 165 190 160 Z"/>

      <clipPath id="jonaminz-stacked-stones-clip-base"><use href="#jonaminz-stacked-stones-shape-base"/></clipPath>
      <clipPath id="jonaminz-stacked-stones-clip-slab"><use href="#jonaminz-stacked-stones-shape-slab"/></clipPath>
      <clipPath id="jonaminz-stacked-stones-clip-middle"><use href="#jonaminz-stacked-stones-shape-middle"/></clipPath>
      <clipPath id="jonaminz-stacked-stones-clip-top"><use href="#jonaminz-stacked-stones-shape-top"/></clipPath>
    </defs>

    <!-- 每個 data-part 群組可獨立套用 transform／opacity 動畫。 -->
    <g id="jonaminz-stacked-stones-stone-top" data-part="stone" data-order="4">
      <use href="#jonaminz-stacked-stones-shape-top" fill="url(#jonaminz-stacked-stones-top-fill)" filter="url(#jonaminz-stacked-stones-shadow)"/>
      <ellipse cx="243" cy="145" rx="45" ry="27" fill="url(#jonaminz-stacked-stones-light)" clip-path="url(#jonaminz-stacked-stones-clip-top)"/>
      <rect x="184" y="107" width="151" height="98" filter="url(#jonaminz-stacked-stones-grain)" clip-path="url(#jonaminz-stacked-stones-clip-top)" opacity="0.32"/>
      <g fill="#3f4636" opacity="0.065" clip-path="url(#jonaminz-stacked-stones-clip-top)">
        <path d="M205 144 C217 132 231 134 239 144 C231 154 216 158 205 151 Z"/>
        <path d="M269 118 C286 117 302 124 306 135 C294 142 279 139 268 130 Z"/>
        <path d="M274 169 C290 161 307 164 313 174 C302 185 284 189 273 181 Z"/>
        <path d="M229 176 C240 169 252 171 257 181 C248 190 235 191 226 184 Z"/>
      </g>
      <g fill="none" stroke="#34392e" stroke-width="0.66" stroke-linecap="round" stroke-linejoin="round" opacity="0.18" clip-path="url(#jonaminz-stacked-stones-clip-top)">
        <path d="M218 124 C225 131 222 139 229 145"/>
        <path d="M232 149 C239 155 236 164 243 171"/>
        <path d="M284 119 C278 128 282 135 275 142"/>
        <path d="M271 149 C264 155 269 163 262 171"/>
        <path d="M203 166 C217 160 227 165 238 159"/>
        <path d="M244 158 C254 153 264 158 274 153"/>
        <path d="M299 133 C294 140 298 146 292 153"/>
        <path d="M286 162 C281 169 285 176 279 183"/>
      </g>
      <g fill="none" stroke="#293027" stroke-width="0.34" stroke-linecap="round" opacity="0.12" clip-path="url(#jonaminz-stacked-stones-clip-top)">
        <path d="M208 139 C214 142 217 146 219 151"/><path d="M224 117 C228 122 231 126 237 128"/>
        <path d="M244 132 C250 136 253 140 253 146"/><path d="M260 116 C258 123 262 128 259 134"/>
        <path d="M290 146 C284 149 281 153 280 158"/><path d="M307 154 C300 156 297 161 292 164"/>
        <path d="M250 180 C256 177 262 179 267 176"/><path d="M215 178 C221 176 225 179 230 176"/>
      </g>
    </g>

    <g id="jonaminz-stacked-stones-stone-middle" data-part="stone" data-order="3">
      <use href="#jonaminz-stacked-stones-shape-middle" fill="url(#jonaminz-stacked-stones-middle-fill)" filter="url(#jonaminz-stacked-stones-shadow)"/>
      <ellipse cx="224" cy="226" rx="70" ry="44" fill="url(#jonaminz-stacked-stones-light)" clip-path="url(#jonaminz-stacked-stones-clip-middle)"/>
      <rect x="137" y="188" width="245" height="122" filter="url(#jonaminz-stacked-stones-grain)" clip-path="url(#jonaminz-stacked-stones-clip-middle)" opacity="0.28"/>
      <g fill="#77746c" opacity="0.055" clip-path="url(#jonaminz-stacked-stones-clip-middle)">
        <path d="M158 244 C173 228 195 229 207 241 C198 254 174 260 159 253 Z"/>
        <path d="M218 199 C235 191 255 194 263 207 C251 218 229 218 217 210 Z"/>
        <path d="M286 214 C303 202 327 206 340 219 C330 233 306 237 288 229 Z"/>
        <path d="M250 263 C270 251 292 256 300 271 C286 283 265 286 249 276 Z"/>
        <path d="M321 260 C336 253 355 259 360 271 C348 281 331 285 319 277 Z"/>
      </g>
      <g fill="none" stroke="#57564f" stroke-width="0.72" stroke-linecap="round" stroke-linejoin="round" opacity="0.18" clip-path="url(#jonaminz-stacked-stones-clip-middle)">
        <path d="M175 217 C187 223 184 234 195 240"/><path d="M201 245 C211 250 207 260 216 266"/>
        <path d="M244 195 C238 205 245 213 240 221"/><path d="M238 230 C232 239 240 247 235 256"/>
        <path d="M316 204 C306 214 312 223 303 231"/><path d="M299 240 C290 247 295 257 286 265"/>
        <path d="M157 266 C173 259 187 264 200 258"/><path d="M207 256 C221 249 233 256 246 250"/>
        <path d="M255 249 C268 244 279 249 291 244"/><path d="M302 239 C316 235 329 239 342 233"/>
      </g>
      <g fill="none" stroke="#4f504b" stroke-width="0.38" stroke-linecap="round" opacity="0.13" clip-path="url(#jonaminz-stacked-stones-clip-middle)">
        <path d="M164 236 C172 239 176 243 179 249"/><path d="M184 205 C191 211 197 211 202 217"/>
        <path d="M211 224 C218 227 223 232 225 238"/><path d="M226 286 C231 279 229 272 235 267"/>
        <path d="M259 204 C265 211 272 212 276 219"/><path d="M270 230 C278 232 282 237 286 241"/>
        <path d="M305 277 C311 269 309 262 316 256"/><path d="M326 226 C334 228 338 233 344 236"/>
        <path d="M348 248 C341 252 338 257 337 263"/><path d="M190 278 C199 273 207 275 214 270"/>
        <path d="M246 291 C251 284 257 283 260 277"/><path d="M285 291 C290 284 297 283 301 277"/>
      </g>
    </g>

    <g id="jonaminz-stacked-stones-stone-slab" data-part="stone" data-order="2">
      <use href="#jonaminz-stacked-stones-shape-slab" fill="url(#jonaminz-stacked-stones-slab-fill)" filter="url(#jonaminz-stacked-stones-shadow)"/>
      <ellipse cx="222" cy="302" rx="102" ry="24" fill="url(#jonaminz-stacked-stones-light)" clip-path="url(#jonaminz-stacked-stones-clip-slab)" opacity="0.72"/>
      <rect x="101" y="285" width="324" height="62" filter="url(#jonaminz-stacked-stones-grain)" clip-path="url(#jonaminz-stacked-stones-clip-slab)" opacity="0.2"/>
      <g fill="#785a40" opacity="0.05" clip-path="url(#jonaminz-stacked-stones-clip-slab)">
        <path d="M122 305 C170 297 212 301 251 306 C210 313 164 315 124 311 Z"/>
        <path d="M267 294 C307 291 359 295 397 302 C354 306 311 305 272 301 Z"/>
        <path d="M178 322 C220 317 272 319 308 326 C266 331 219 330 180 327 Z"/>
      </g>
      <g fill="none" stroke="#73573f" stroke-width="0.56" stroke-linecap="round" opacity="0.15" clip-path="url(#jonaminz-stacked-stones-clip-slab)">
        <path d="M139 306 C160 310 177 307 196 309"/><path d="M204 307 C222 305 238 312 255 311"/>
        <path d="M265 313 C285 315 300 309 319 310"/><path d="M329 307 C342 305 353 310 367 309"/>
        <path d="M191 291 C199 298 197 305 204 311"/><path d="M211 319 C217 324 214 330 221 334"/>
        <path d="M333 294 C326 300 330 306 324 312"/><path d="M318 321 C311 326 315 331 308 335"/>
      </g>
      <g fill="none" stroke="#6b503b" stroke-width="0.32" stroke-linecap="round" opacity="0.1" clip-path="url(#jonaminz-stacked-stones-clip-slab)">
        <path d="M120 318 C145 315 163 319 186 316"/><path d="M230 297 C249 300 267 297 286 300"/>
        <path d="M280 328 C299 325 318 328 338 324"/><path d="M353 317 C369 315 383 317 398 314"/>
        <path d="M153 297 C161 300 167 300 173 304"/><path d="M246 332 C252 327 260 328 265 324"/>
      </g>
    </g>

    <g id="jonaminz-stacked-stones-stone-base" data-part="stone" data-order="1">
      <use href="#jonaminz-stacked-stones-shape-base" fill="url(#jonaminz-stacked-stones-base-fill)" filter="url(#jonaminz-stacked-stones-shadow)"/>
      <ellipse cx="188" cy="369" rx="104" ry="60" fill="url(#jonaminz-stacked-stones-light)" clip-path="url(#jonaminz-stacked-stones-clip-base)" opacity="0.56"/>
      <rect x="67" y="333" width="379" height="126" filter="url(#jonaminz-stacked-stones-grain)" clip-path="url(#jonaminz-stacked-stones-clip-base)" opacity="0.42"/>
      <g fill="#a4a49a" opacity="0.038" clip-path="url(#jonaminz-stacked-stones-clip-base)">
        <path d="M93 383 C119 361 151 364 168 381 C151 398 118 403 94 393 Z"/>
        <path d="M185 345 C209 337 239 342 249 359 C229 373 201 373 183 361 Z"/>
        <path d="M275 353 C298 340 331 345 344 362 C326 378 293 382 274 368 Z"/>
        <path d="M354 389 C378 375 410 382 424 400 C408 414 378 418 356 405 Z"/>
        <path d="M155 415 C180 405 211 412 220 430 C199 441 172 440 154 428 Z"/>
        <path d="M252 410 C276 399 306 405 318 423 C300 438 272 441 252 428 Z"/>
      </g>
      <g fill="none" stroke="#101411" stroke-width="0.78" stroke-linecap="round" stroke-linejoin="round" opacity="0.21" clip-path="url(#jonaminz-stacked-stones-clip-base)">
        <path d="M111 382 C126 387 124 398 138 403"/><path d="M145 411 C158 416 152 427 165 433"/>
        <path d="M188 347 C183 359 191 367 186 377"/><path d="M184 387 C178 398 187 406 182 417"/>
        <path d="M278 342 C270 354 278 363 272 373"/><path d="M269 384 C261 395 270 405 263 416"/>
        <path d="M367 353 C356 362 361 372 352 379"/><path d="M347 390 C336 397 341 408 332 416"/>
        <path d="M88 417 C108 410 122 415 139 409"/><path d="M150 406 C168 399 182 406 198 400"/>
        <path d="M210 399 C227 393 241 399 257 394"/><path d="M274 391 C290 386 304 391 320 386"/>
      </g>
      <g fill="none" stroke="#0c110e" stroke-width="0.4" stroke-linecap="round" opacity="0.14" clip-path="url(#jonaminz-stacked-stones-clip-base)">
        <path d="M98 394 C106 397 111 402 113 408"/><path d="M126 359 C136 365 144 364 152 371"/>
        <path d="M151 385 C160 388 166 394 169 400"/><path d="M174 349 C180 355 181 362 187 367"/>
        <path d="M205 376 C214 380 220 385 222 392"/><path d="M224 421 C233 415 241 418 248 412"/>
        <path d="M246 350 C253 358 260 358 265 365"/><path d="M285 421 C293 414 301 417 308 410"/>
        <path d="M307 358 C316 364 323 363 331 370"/><path d="M340 428 C347 420 355 421 361 414"/>
        <path d="M376 373 C385 377 391 383 394 390"/><path d="M399 421 C407 415 416 416 423 410"/>
        <path d="M114 432 C123 427 133 430 141 425"/><path d="M194 437 C202 431 211 434 218 428"/>
        <path d="M258 439 C266 433 275 436 282 430"/><path d="M319 439 C328 433 336 435 343 429"/>
      </g>
      <g fill="none" stroke="#b6b2a6" stroke-width="0.44" stroke-linecap="round" opacity="0.085" clip-path="url(#jonaminz-stacked-stones-clip-base)">
        <path d="M104 405 C120 401 133 405 147 401"/><path d="M173 420 C188 416 201 420 216 416"/>
        <path d="M237 372 C250 368 262 372 274 367"/><path d="M296 401 C311 396 324 400 338 395"/>
        <path d="M352 432 C366 426 380 429 394 423"/>
      </g>
      <path d="M112 414 C151 425 189 422 224 426" fill="none" stroke="#a9aaa1" stroke-width="0.62" opacity="0.1" clip-path="url(#jonaminz-stacked-stones-clip-base)"/>
      <path d="M246 426 C286 430 333 424 372 416" fill="none" stroke="#a9aaa1" stroke-width="0.48" opacity="0.08" clip-path="url(#jonaminz-stacked-stones-clip-base)"/>
    </g>

    <g id="jonaminz-stacked-stones-ground-brush" data-part="ground" aria-label="地面筆觸">
      <path d="M48 463 C110 456 171 458 225 460 C300 462 372 455 456 462" fill="none" stroke="#8e806b" stroke-width="4.6" stroke-linecap="round" opacity="0.5"/>
      <path d="M73 468 C147 461 222 466 288 466 C348 466 394 460 437 465" fill="none" stroke="#6f6657" stroke-width="2.3" stroke-linecap="round" opacity="0.42"/>
      <path d="M34 471 C111 469 145 472 204 470" fill="none" stroke="#b9aa91" stroke-width="1.5" stroke-linecap="round" opacity="0.64"/>
      <path d="M272 471 C330 469 393 473 470 468" fill="none" stroke="#b9aa91" stroke-width="1.3" stroke-linecap="round" opacity="0.56"/>
      <path d="M92 476 C154 471 213 477 255 474" fill="none" stroke="#5f584d" stroke-width="1.1" stroke-linecap="round" opacity="0.34"/>
      <path d="M307 476 C343 473 375 478 417 473" fill="none" stroke="#5f584d" stroke-width="1" stroke-linecap="round" opacity="0.28"/>
      <path d="M54 458 L112 456" stroke="#c7b9a1" stroke-width="1" stroke-linecap="round" opacity="0.72"/>
      <path d="M410 458 L461 460" stroke="#c7b9a1" stroke-width="1" stroke-linecap="round" opacity="0.68"/>
    </g>
  </svg>
<!-- 竹枝：2026-07-14 補回。取自 jonaminz-bamboo-sprig.svg，莖基部落在
       疊石正上方（約世界座標 1100,300），沿單一方向彎曲往右上長，葉尖
       落在字標頂部附近（約 y=130），與字標右側／z 略有重疊，呼應設計
       稿裡「竹枝從石堆旁長出、葉尖高過字標」的構圖。 -->
  <svg id="jonaminz-zen-logo-bamboo" data-part="bamboo" x="1072" y="113" width="144" height="204" viewBox="0 0 480 680" preserveAspectRatio="xMidYMid meet">
<title id="jonaminz-bamboo-sprig-title">Jonaminz 竹枝</title>
  <desc id="jonaminz-bamboo-sprig-desc">一根單一方向彎曲（無反曲）、由粗到細漸縮、帶六個竹節環的竹幹，三個竹節上各自長出一叢自然交疊的竹葉。</desc>

  <defs>
    <linearGradient id="jonaminz-bamboo-sprig-stem-fill" x1="80" y1="620" x2="368" y2="45" gradientUnits="userSpaceOnUse">
      <stop offset="0" stop-color="#7d785f"/>
      <stop offset="0.35" stop-color="#667054"/>
      <stop offset="0.72" stop-color="#4d5c43"/>
      <stop offset="1" stop-color="#33412f"/>
    </linearGradient>
    <linearGradient id="jonaminz-bamboo-sprig-joint-fill" x1="0" y1="0" x2="1" y2="1">
      <stop offset="0" stop-color="#9c8a5e"/>
      <stop offset="1" stop-color="#6e5e3d"/>
    </linearGradient>
    <linearGradient id="jonaminz-bamboo-sprig-leaf-primary" x1="0" y1="1" x2="1" y2="0">
      <stop offset="0" stop-color="#3f4d38"/>
      <stop offset="0.5" stop-color="#637052"/>
      <stop offset="1" stop-color="#879077"/>
    </linearGradient>
    <linearGradient id="jonaminz-bamboo-sprig-leaf-muted" x1="0" y1="1" x2="1" y2="0">
      <stop offset="0" stop-color="#596249"/>
      <stop offset="0.55" stop-color="#7b8365"/>
      <stop offset="1" stop-color="#a0a58a"/>
    </linearGradient>
    <linearGradient id="jonaminz-bamboo-sprig-leaf-deep" x1="0" y1="1" x2="1" y2="0">
      <stop offset="0" stop-color="#2f3c2c"/>
      <stop offset="0.55" stop-color="#4b5a42"/>
      <stop offset="1" stop-color="#6f785d"/>
    </linearGradient>

    <!-- 葉片基部在 (0,0)，外層 animation wrapper 保持無 transform。
         上下緣接近對稱的直長矛狀，末端銳利收尖。 -->
    <path id="jonaminz-bamboo-sprig-leaf-shape" d="M0,0 C12,-4 30,-9 55,-10 C80,-11 100,-7 116,0 C100,6 78,9 52,9 C28,9 10,5 0,0 Z"/>
    <path id="jonaminz-bamboo-sprig-leaf-vein" d="M4,0 C25,-2 55,-3 112,0"/>
  </defs>

  <!-- 主莖：單一 cubic bezier centerline（M92,622 C124.9,404.4 214.0,213.0
       362,42），兩個控制點都在弦的同一側，只有一個彎、無反曲。真正有
       寬度的填色竹幹輪廓 + 六個節環色塊都是沿這條 centerline 算出來的
       （見 gen-culm3.mjs）。 -->
  <g id="jonaminz-bamboo-sprig-stem-main" data-part="stem">
    <g data-art="stem-main">
      <path fill="url(#jonaminz-bamboo-sprig-stem-fill)" stroke="#33412f" stroke-width="1" stroke-opacity="0.4"
            d="M104.8,633.2 L110.1,626.8 L115.5,620.4 L120.7,614.0 L126.0,607.5 L131.2,601.0 L136.3,594.5 L141.4,588.0 L146.4,581.4 L151.4,574.9 L156.3,568.3 L161.1,561.7 L165.9,555.0 L170.7,548.3 L175.4,541.7 L180.1,534.9 L184.7,528.2 L189.2,521.4 L193.7,514.6 L198.1,507.8 L202.5,501.0 L206.9,494.1 L211.1,487.2 L215.4,480.3 L219.6,473.4 L223.7,466.4 L227.7,459.4 L231.8,452.4 L235.7,445.4 L239.6,438.3 L243.5,431.2 L247.3,424.1 L251.1,417.0 L254.8,409.8 L258.4,402.6 L262.0,395.4 L265.5,388.2 L269.0,380.9 L272.5,373.6 L275.9,366.3 L279.2,358.9 L282.5,351.6 L285.7,344.2 L288.9,336.7 L292.0,329.3 L295.1,321.8 L298.1,314.3 L301.0,306.8 L304.0,299.2 L306.8,291.7 L309.6,284.1 L312.4,276.4 L315.1,268.8 L317.7,261.1 L320.3,253.4 L322.9,245.6 L325.4,237.9 L327.8,230.1 L330.2,222.2 L332.6,214.4 L334.9,206.5 L337.1,198.6 L339.3,190.7 L341.4,182.7 L343.5,174.7 L345.5,166.7 L347.5,158.7 L349.4,150.6 L351.3,142.5 L353.2,134.4 L354.9,126.3 L356.7,118.1 L358.3,109.9 L360.0,101.7 L361.5,93.4 L363.1,85.1 L364.5,76.8 L365.9,68.5 L367.3,60.1 L368.6,51.7 L369.9,43.3 L354.1,40.7 L352.6,49.0 L351.1,57.3 L349.6,65.5 L348.0,73.7 L346.3,81.9 L344.6,90.0 L342.9,98.1 L341.1,106.2 L339.2,114.3 L337.3,122.3 L335.4,130.3 L333.4,138.2 L331.3,146.1 L329.2,154.0 L327.1,161.9 L324.9,169.7 L322.7,177.5 L320.4,185.3 L318.0,193.0 L315.6,200.7 L313.2,208.4 L310.7,216.1 L308.1,223.7 L305.5,231.3 L302.9,238.8 L300.2,246.3 L297.4,253.8 L294.6,261.3 L291.8,268.8 L288.9,276.2 L285.9,283.5 L282.9,290.9 L279.9,298.2 L276.8,305.5 L273.6,312.8 L270.4,320.0 L267.2,327.2 L263.9,334.4 L260.5,341.5 L257.1,348.7 L253.7,355.8 L250.1,362.8 L246.6,369.8 L243.0,376.9 L239.3,383.8 L235.6,390.8 L231.9,397.7 L228.1,404.6 L224.2,411.5 L220.3,418.3 L216.3,425.1 L212.3,431.9 L208.3,438.6 L204.2,445.4 L200.0,452.1 L195.8,458.7 L191.5,465.4 L187.2,472.0 L182.9,478.6 L178.4,485.2 L174.0,491.7 L169.5,498.2 L164.9,504.7 L160.3,511.1 L155.6,517.6 L150.9,524.0 L146.1,530.4 L141.3,536.7 L136.4,543.0 L131.5,549.3 L126.5,555.6 L121.4,561.8 L116.3,568.0 L111.2,574.2 L106.0,580.4 L100.8,586.5 L95.5,592.6 L90.1,598.7 L84.7,604.8 L79.2,610.8 Z"/>
      <!-- 竹幹右緣一道細高光，暗示圓柱面反光。 -->
      <path fill="none" stroke="#d2cfb8" stroke-width="1.3" stroke-linecap="round" opacity="0.4"
            d="M150.7,564.0 C185,510 215,465 238.3,428.3 C265,386 285,335 305.0,282.3 C325,230 340,175 351.0,125.4"/>
      <!-- 六個竹節環（偏褐色塊）。 -->
      <g fill="url(#jonaminz-bamboo-sprig-joint-fill)" opacity="0.85">
        <path d="M158.7,566.1 L164.8,558.1 L138.8,538.6 L132.8,546.6 Z"/>
        <path d="M213.3,484.9 L218.6,476.5 L193.6,460.8 L188.3,469.3 Z"/>
        <path d="M256.7,407.4 L261.3,398.5 L237.4,386.1 L232.8,394.9 Z"/>
        <path d="M296.7,319.2 L300.5,309.9 L278.1,300.7 L274.3,309.9 Z"/>
        <path d="M326.8,235.0 L329.9,225.5 L309.2,218.8 L306.1,228.3 Z"/>
        <path d="M352.5,139.4 L354.7,129.7 L336.1,125.3 L333.8,135.0 Z"/>
      </g>
    </g>
  </g>

  <!-- 三個短分枝，起點精確對齊第 2、4、6 個竹節環的中心座標——葉叢從
       竹節長出來，不是從節與節之間的莖身冒出。 -->
  <g id="jonaminz-bamboo-sprig-branch-lower" data-part="branch" data-order="1">
    <path pathLength="1" d="M203.5,472.9 C218,469 230,466 239.6,461.2"
          fill="none" stroke="url(#jonaminz-bamboo-sprig-stem-fill)" stroke-width="3" stroke-linecap="round"/>
  </g>

  <g id="jonaminz-bamboo-sprig-branch-middle" data-part="branch" data-order="2">
    <path pathLength="1" d="M287.4,309.9 C282,297 278,286 276.6,275.6"
          fill="none" stroke="url(#jonaminz-bamboo-sprig-stem-fill)" stroke-width="2.6" stroke-linecap="round"/>
  </g>

  <g id="jonaminz-bamboo-sprig-branch-upper" data-part="branch" data-order="3">
    <path pathLength="1" d="M344.3,132.3 C356,124 364,117 369.6,109.6"
          fill="none" stroke="url(#jonaminz-bamboo-sprig-stem-fill)" stroke-width="2.2" stroke-linecap="round"/>
  </g>

  <!-- 每叢 4-5 片葉子不規則自然叢生（長短、角度都刻意不平均）。 -->

  <g id="jonaminz-bamboo-sprig-node-1" data-part="leaf-cluster" data-order="1" data-anchor-x="239.6" data-anchor-y="461.2">
    <g transform="translate(239.6 461.2) rotate(-58) scale(.44)"><use href="#jonaminz-bamboo-sprig-leaf-shape" fill="url(#jonaminz-bamboo-sprig-leaf-deep)"/><use href="#jonaminz-bamboo-sprig-leaf-vein" fill="none" stroke="#cdd0bb" stroke-width="1" opacity="0.36"/></g>
    <g transform="translate(239.6 461.2) rotate(-36) scale(.5)"><use href="#jonaminz-bamboo-sprig-leaf-shape" fill="url(#jonaminz-bamboo-sprig-leaf-primary)"/><use href="#jonaminz-bamboo-sprig-leaf-vein" fill="none" stroke="#d7d7c2" stroke-width="1" opacity="0.4"/></g>
    <g transform="translate(239.6 461.2) rotate(-16) scale(.36)"><use href="#jonaminz-bamboo-sprig-leaf-shape" fill="url(#jonaminz-bamboo-sprig-leaf-deep)"/><use href="#jonaminz-bamboo-sprig-leaf-vein" fill="none" stroke="#cdd0bb" stroke-width="1" opacity="0.36"/></g>
    <g transform="translate(239.6 461.2) rotate(2) scale(.42)"><use href="#jonaminz-bamboo-sprig-leaf-shape" fill="url(#jonaminz-bamboo-sprig-leaf-muted)"/><use href="#jonaminz-bamboo-sprig-leaf-vein" fill="none" stroke="#d7d7c2" stroke-width="1" opacity="0.38"/></g>
    <g transform="translate(239.6 461.2) rotate(20) scale(.26)"><use href="#jonaminz-bamboo-sprig-leaf-shape" fill="url(#jonaminz-bamboo-sprig-leaf-muted)"/><use href="#jonaminz-bamboo-sprig-leaf-vein" fill="none" stroke="#d7d7c2" stroke-width="1" opacity="0.34"/></g>
  </g>

  <!-- 這叢朝左上，用「先旋轉再水平鏡射」取代旋轉超過 180 度，避免葉片
       弧線跟著上下顛倒。 -->
  <g id="jonaminz-bamboo-sprig-node-2" data-part="leaf-cluster" data-order="2" data-anchor-x="276.6" data-anchor-y="275.6">
    <g transform="translate(276.6 275.6) rotate(73) scale(-.44 .44)"><use href="#jonaminz-bamboo-sprig-leaf-shape" fill="url(#jonaminz-bamboo-sprig-leaf-deep)"/><use href="#jonaminz-bamboo-sprig-leaf-vein" fill="none" stroke="#cdd0bb" stroke-width="1" opacity="0.36"/></g>
    <g transform="translate(276.6 275.6) rotate(51) scale(-.5 .5)"><use href="#jonaminz-bamboo-sprig-leaf-shape" fill="url(#jonaminz-bamboo-sprig-leaf-primary)"/><use href="#jonaminz-bamboo-sprig-leaf-vein" fill="none" stroke="#d7d7c2" stroke-width="1" opacity="0.4"/></g>
    <g transform="translate(276.6 275.6) rotate(31) scale(-.36 .36)"><use href="#jonaminz-bamboo-sprig-leaf-shape" fill="url(#jonaminz-bamboo-sprig-leaf-deep)"/><use href="#jonaminz-bamboo-sprig-leaf-vein" fill="none" stroke="#cdd0bb" stroke-width="1" opacity="0.36"/></g>
    <g transform="translate(276.6 275.6) rotate(13) scale(-.42 .42)"><use href="#jonaminz-bamboo-sprig-leaf-shape" fill="url(#jonaminz-bamboo-sprig-leaf-muted)"/><use href="#jonaminz-bamboo-sprig-leaf-vein" fill="none" stroke="#d7d7c2" stroke-width="1" opacity="0.38"/></g>
    <g transform="translate(276.6 275.6) rotate(-5) scale(-.26 .26)"><use href="#jonaminz-bamboo-sprig-leaf-shape" fill="url(#jonaminz-bamboo-sprig-leaf-muted)"/><use href="#jonaminz-bamboo-sprig-leaf-vein" fill="none" stroke="#d7d7c2" stroke-width="1" opacity="0.34"/></g>
  </g>

  <g id="jonaminz-bamboo-sprig-node-3" data-part="leaf-cluster" data-order="3" data-anchor-x="369.6" data-anchor-y="109.6">
    <g transform="translate(369.6 109.6) rotate(-101) scale(.36)"><use href="#jonaminz-bamboo-sprig-leaf-shape" fill="url(#jonaminz-bamboo-sprig-leaf-muted)"/><use href="#jonaminz-bamboo-sprig-leaf-vein" fill="none" stroke="#d7d7c2" stroke-width="1" opacity="0.36"/></g>
    <g transform="translate(369.6 109.6) rotate(-80) scale(.46)"><use href="#jonaminz-bamboo-sprig-leaf-shape" fill="url(#jonaminz-bamboo-sprig-leaf-primary)"/><use href="#jonaminz-bamboo-sprig-leaf-vein" fill="none" stroke="#d7d7c2" stroke-width="1" opacity="0.4"/></g>
    <g transform="translate(369.6 109.6) rotate(-60) scale(.3)"><use href="#jonaminz-bamboo-sprig-leaf-shape" fill="url(#jonaminz-bamboo-sprig-leaf-deep)"/><use href="#jonaminz-bamboo-sprig-leaf-vein" fill="none" stroke="#cdd0bb" stroke-width="1" opacity="0.36"/></g>
    <g transform="translate(369.6 109.6) rotate(-42) scale(.34)"><use href="#jonaminz-bamboo-sprig-leaf-shape" fill="url(#jonaminz-bamboo-sprig-leaf-muted)"/><use href="#jonaminz-bamboo-sprig-leaf-vein" fill="none" stroke="#d7d7c2" stroke-width="1" opacity="0.34"/></g>
  </g>
  </svg>
</svg>
